<svg xmlns="http://www.w3.org/2000/svg" width="19.926" height="18.149" viewBox="0 0 19.926 18.149">
  <g id="Polygon_74" data-name="Polygon 74" transform="translate(-483.735 -492.341)">
    <path id="Path_4213" data-name="Path 4213" d="M493.261,492.6a.5.5,0,0,1,.682-.189.494.494,0,0,1,.188.189L497,497.654a.5.5,0,0,0,.35.247l5.9,1.018a.5.5,0,0,1,.268.847l-4.118,4.093a.5.5,0,0,0-.142.425l.8,5.635a.5.5,0,0,1-.426.564.506.506,0,0,1-.274-.039l-5.449-2.5a.5.5,0,0,0-.417,0l-5.449,2.5a.5.5,0,0,1-.7-.525l.8-5.635a.5.5,0,0,0-.142-.425l-4.115-4.093a.5.5,0,0,1,0-.708.5.5,0,0,1,.269-.139l5.9-1.018a.5.5,0,0,0,.35-.247Z" fill="none"/>
    <path id="Path_4214" data-name="Path 4214" d="M493.7,493.857l-2.425,4.289a1.5,1.5,0,0,1-1.051.74l-4.946.853,3.428,3.41a1.507,1.507,0,0,1,.427,1.276l-.674,4.728,4.616-2.115a1.5,1.5,0,0,1,1.25,0l4.616,2.115-.674-4.729a1.509,1.509,0,0,1,.427-1.275l3.429-3.41-4.947-.853a1.5,1.5,0,0,1-1.05-.74l-2.426-4.289m0-1.516a.5.5,0,0,1,.436.254l2.86,5.059a.5.5,0,0,0,.35.246l5.9,1.018a.5.5,0,0,1,.268.848l-4.114,4.092a.5.5,0,0,0-.143.425l.8,5.636a.5.5,0,0,1-.7.525l-5.448-2.5a.5.5,0,0,0-.417,0l-5.449,2.5a.5.5,0,0,1-.7-.525l.8-5.636a.5.5,0,0,0-.142-.425l-4.114-4.092a.5.5,0,0,1,.267-.848l5.9-1.018a.5.5,0,0,0,.35-.246l2.861-5.059A.5.5,0,0,1,493.7,492.341Z" fill="#ffc63b"/>
  </g>
</svg>
