<svg id="Isolation_Mode" data-name="Isolation Mode" xmlns="http://www.w3.org/2000/svg" viewBox="0 0 350 43.19"><title>pr_logo_2018_footer</title><path d="M36.32-89.46c-.39,0-.79,0-1.18,0H12.91v11H33.45c2.15,0,3.83,1.07,3.83,3.37s-1.68,3.22-3.83,3.22H12.91v24.06H25.48v-13.1h9.66A13.86,13.86,0,0,0,50-73.73a15.51,15.51,0,0,0,0-1.67A13.89,13.89,0,0,0,36.32-89.46Z" transform="translate(-12.91 90.17)" fill="#fff"/><path d="M196.69-78.46H189v6.59h7.67c2.14,0,4.14-1,4.14-3.3S198.83-78.46,196.69-78.46Z" transform="translate(-12.91 90.17)" fill="none"/><polygon points="53.88 0.75 41.31 0.75 41.31 42.37 69.66 42.37 69.66 31.33 53.88 31.33 53.88 0.75" fill="#fff"/><polyline points="94.72 42.37 92.27 42.37 89.28 42.37" fill="#fff"/><polygon points="136.8 14.78 129.06 0.75 114.95 0.75 130.51 25.81 130.51 42.37 143.16 42.37 143.16 25.81 158.64 0.75 144.46 0.75 136.8 14.78" fill="#fff"/><path d="M213.62-75.4A13.85,13.85,0,0,0,200.3-89.79a13.33,13.33,0,0,0-2,.06H176.46v41.62H189V-61.22h4.6l5.75,13.11H213.7L206-62.83A13.39,13.39,0,0,0,213.62-75.4ZM189-71.87v-6.9h7.67c2.14,0,4.14,1,4.14,3.3s-2,3.6-4.14,3.6Z" transform="translate(-12.91 90.17)" fill="#bbbdc3"/><rect x="205.85" y="0.75" width="12.57" height="41.61" fill="#bbbdc3"/><path d="M257.54-61.53h7.66v1.46a11.42,11.42,0,0,1-6.44,1.92,10,10,0,0,1-10.12-9.8c0-.21,0-.42,0-.63A10,10,0,0,1,258.14-79h.62a8.67,8.67,0,0,1,7.67,5.21L277-79.23a19.38,19.38,0,0,0-18.24-10.88A21.38,21.38,0,0,0,235.83-70.4c0,.61-.06,1.22-.06,1.82A21.46,21.46,0,0,0,257.1-47c.55,0,1.11,0,1.66,0a24.67,24.67,0,0,0,19-8.43v-17H257.54Z" transform="translate(-12.91 90.17)" fill="#bbbdc3"/><polygon points="298.04 15.47 283.1 15.47 283.1 0.75 270.53 0.75 270.53 42.37 283.1 42.37 283.1 26.43 298.04 26.43 298.04 42.37 310.61 42.37 310.61 0.75 298.04 0.75 298.04 15.47" fill="#bbbdc3"/><polygon points="315.13 0.75 315.13 11.71 326.32 11.71 326.32 42.37 338.89 42.37 338.89 11.71 350 11.71 350 0.75 315.13 0.75" fill="#bbbdc3"/><polygon points="106.22 0.75 90.36 0.75 75.03 42.37 89.28 42.37 98.25 13.09 103.54 30.33 98.17 30.33 94.72 42.37 107.22 42.37 121.55 42.37 106.22 0.75" fill="#fff"/></svg>