<svg xmlns="http://www.w3.org/2000/svg" width="19.925" height="18.15" viewBox="0 0 19.925 18.15">
  <g id="Group_6111" data-name="Group 6111" transform="translate(-483.245 -490.87)">
    <g id="Polygon_75" data-name="Polygon 75">
      <path id="Path_4208" data-name="Path 4208" d="M496.57,496.27a.549.549,0,0,1-.07-.09l-2.86-5.06,2.87,5.06Z" fill="none"/>
      <path id="Path_4209" data-name="Path 4209" d="M497.77,502.95l.68,4.73-4.62-2.11a1.435,1.435,0,0,0-.57-.13V492.48l2.37,4.19a1.462,1.462,0,0,0,1.05.74l4.95.86-3.43,3.41A1.535,1.535,0,0,0,497.77,502.95Z" fill="none"/>
      <path id="Path_4210" data-name="Path 4210" d="M503.06,497.63a.51.51,0,0,0-.3-.18A.465.465,0,0,1,503.06,497.63Z" fill="none"/>
      <path id="Path_4211" data-name="Path 4211" d="M483.26,497.84a.458.458,0,0,0,.13.45A.5.5,0,0,1,483.26,497.84Zm3.628,10.869a.512.512,0,0,1-.038-.259A.5.5,0,0,0,486.888,508.709Zm.072.131a.452.452,0,0,1-.072-.131l0,.011C486.91,508.76,486.94,508.8,486.96,508.84Zm6.36-17.95a.5.5,0,0,1,.13.05.444.444,0,0,1,.11.08A.383.383,0,0,0,493.32,490.89Zm.1,15.58a.512.512,0,0,0-.42,0l-5.45,2.5,5.45-2.49a.426.426,0,0,1,.41,0l5.45,2.49Zm5.44,2.5a.46.46,0,0,0,.28.04A.534.534,0,0,1,498.86,508.97Zm.28.04a.46.46,0,0,0,.31-.17A.532.532,0,0,1,499.14,509.01Zm-.38-6.2.8,5.64c0,.02.01.05.01.07v-.07Z" fill="#ffc63b"/>
      <path id="Path_4212" data-name="Path 4212" d="M503.14,497.78a1.1,1.1,0,0,0-.08-.15.51.51,0,0,0-.3-.18h-.01l-5.9-1.02a.5.5,0,0,1-.28-.16.549.549,0,0,1-.07-.09l-2.86-5.06a.392.392,0,0,0-.08-.1.444.444,0,0,0-.11-.08.5.5,0,0,0-.13-.05.215.215,0,0,0-.11-.02.508.508,0,0,0-.17.03.285.285,0,0,0-.14.08c-.02,0-.03.02-.04.03a.481.481,0,0,0-.09.11l-2.86,5.06a.506.506,0,0,1-.35.25l-5.9,1.02a.669.669,0,0,0-.18.07.7.7,0,0,0-.1.08.376.376,0,0,0-.09.15.317.317,0,0,0-.03.09.5.5,0,0,0,.13.45l4.12,4.1a.506.506,0,0,1,.14.42l-.8,5.64a.511.511,0,0,0,.04.27c.02.04.05.08.07.12a.474.474,0,0,0,.1.1.5.5,0,0,0,.49.03l5.45-2.5a.512.512,0,0,1,.42,0l5.44,2.5a.5.5,0,0,0,.59-.13.29.29,0,0,0,.09-.16.415.415,0,0,0,.03-.16c0-.02-.01-.05-.01-.07l-.8-5.64a.483.483,0,0,1,.15-.42l4.11-4.1a.511.511,0,0,0,.11-.16.392.392,0,0,0,.04-.18A.467.467,0,0,0,503.14,497.78Zm-4.94,3.9a1.535,1.535,0,0,0-.43,1.27l.68,4.73-4.62-2.11a1.435,1.435,0,0,0-.57-.13V492.48l2.37,4.19a1.462,1.462,0,0,0,1.05.74l4.95.86Z" fill="#ffc63b"/>
    </g>
  </g>
</svg>
