<svg xmlns="http://www.w3.org/2000/svg" width="157" height="33" viewBox="0 0 157 33">
    <defs>
        <style>
            .cls-1{fill:#f5c22a}
        </style>
    </defs>
    <g id="Group_6" transform="translate(-1614.333 -77)">
        <path id="Polygon_1" d="M11.115 1.685a1 1 0 0 1 1.77 0l2.854 5.431a1 1 0 0 0 .686.515L22.3 8.822a1 1 0 0 1 .548 1.645l-4.142 4.653a1 1 0 0 0-.246.782l.741 6.271a1 1 0 0 1-1.435 1.015l-5.325-2.62a1 1 0 0 0-.883 0l-5.325 2.62A1 1 0 0 1 4.8 22.173l.74-6.273a1 1 0 0 0-.246-.782l-4.139-4.652A1 1 0 0 1 1.7 8.822L7.575 7.63a1 1 0 0 0 .686-.515z" class="cls-1" transform="translate(1614.333 86)"/>
        <path id="Polygon_3" d="M12.615 1.685a1 1 0 0 1 1.77 0l3.349 6.373a1 1 0 0 0 .686.515l6.876 1.4a1 1 0 0 1 .548 1.645l-4.838 5.44a1 1 0 0 0-.246.782l.867 7.339a1 1 0 0 1-1.435 1.015l-6.252-3.076a1 1 0 0 0-.883 0l-6.25 3.07a1 1 0 0 1-1.435-1.015l.867-7.339a1 1 0 0 0-.246-.782l-4.838-5.44A1 1 0 0 1 1.7 9.967l6.876-1.4a1 1 0 0 0 .686-.515z" class="cls-1" transform="translate(1643.333 83)"/>
        <path id="Polygon_5" d="M16.121 1.624a1 1 0 0 1 1.759 0l4.506 8.324a1 1 0 0 0 .686.505l9.181 1.808a1 1 0 0 1 .544 1.657l-6.409 6.995a1 1 0 0 0-.255.8l1.154 9.483a1 1 0 0 1-1.424 1.023l-8.432-4.027a1 1 0 0 0-.862 0l-8.432 4.023a1 1 0 0 1-1.424-1.023l1.154-9.483a1 1 0 0 0-.255-.8L1.2 13.918a1 1 0 0 1 .544-1.657l9.181-1.808a1 1 0 0 0 .686-.505z" class="cls-1" transform="translate(1675.333 77)"/>
        <path id="Polygon_2" d="M13.122 1.611a1 1 0 0 1 1.756 0L18.4 8.065a1 1 0 0 0 .686.5l7.162 1.4a1 1 0 0 1 .543 1.659l-5 5.419a1 1 0 0 0-.257.8l.9 7.349a1 1 0 0 1-1.421 1.025L14.429 23.1a1 1 0 0 0-.857 0L6.99 26.221A1 1 0 0 1 5.568 25.2l.9-7.349a1 1 0 0 0-.257-.8l-5-5.419a1 1 0 0 1 .543-1.659l7.162-1.4a1 1 0 0 0 .686-.5z" class="cls-1" transform="translate(1714.333 83)"/>
        <path id="Polygon_4" d="M11.115 1.685a1 1 0 0 1 1.77 0l2.854 5.431a1 1 0 0 0 .686.515L22.3 8.822a1 1 0 0 1 .548 1.645l-4.142 4.653a1 1 0 0 0-.246.782l.741 6.271a1 1 0 0 1-1.435 1.015l-5.325-2.62a1 1 0 0 0-.883 0l-5.325 2.62A1 1 0 0 1 4.8 22.173l.74-6.273a1 1 0 0 0-.246-.782l-4.139-4.652A1 1 0 0 1 1.7 8.822L7.575 7.63a1 1 0 0 0 .686-.515z" class="cls-1" transform="translate(1747.333 86)"/>
    </g>
</svg>
