<svg xmlns="http://www.w3.org/2000/svg" width="22.107" height="19.897" viewBox="0 0 22.107 19.897">
    <path fill="#fff" d="M6.9 19.9a2 2 0 0 1-2-2V9.941a2 2 0 0 1 2-2h13.207a2 2 0 0 1 2 2V17.9a2 2 0 0 1-2 2zm-.361-9.248v.562a1 1 0 0 0 1 1h2.1a1 1 0 0 0 1-1v-.562a1 1 0 0 0-1-1h-2.1a1 1 0 0 0-1 .997zm-3.278 4.842l-1.807-3.261 1.808-1.088V15.5zM.284 10.121a2.436 2.436 0 0 1 .85-3.2L12.1.318A2.2 2.2 0 0 1 13.233 0a2.268 2.268 0 0 1 1.952 1.154L6.676 6.275a4.02 4.02 0 0 0-2.635 1.586l-3.755 2.26zM18 6.232h-6.574l4.929-2.966L18 6.231z" transform="translate(0)"/>
</svg>
