<svg xmlns="http://www.w3.org/2000/svg" width="19.134" height="19.583" viewBox="0 0 19.134 19.583">
    <defs>
        <style>
            .cls-1{fill:#fff}
        </style>
    </defs>
    <g id="Group_58" transform="translate(0 0)">
        <path id="Path_130" d="M1.024 0l4.222.13a1.138 1.138 0 0 1 1.089 1.088.981.981 0 0 1-1.024 1.024l-4.223-.13A1.138 1.138 0 0 1 0 1.024.981.981 0 0 1 1.024 0z" class="cls-1" transform="translate(7.283 11.003) rotate(45)"/>
        <path id="Subtraction_17" d="M11.565 19.583H2a2 2 0 0 1-2-2V3.632a2 2 0 0 1 2-2h.724A2.989 2.989 0 0 1 5.394 0h2.777a2.991 2.991 0 0 1 2.671 1.632h.723a2 2 0 0 1 2 2v3.721l-1.909 2.03a1.225 1.225 0 0 0-.911-.408H2.82a1.224 1.224 0 0 0 0 2.448h1.562a3.488 3.488 0 0 0 .118 2.449H2.82a1.224 1.224 0 0 0 0 2.448h3.716l1.47 1.562a2.94 2.94 0 0 0 4.341 0l1.219-1.3v1a2 2 0 0 1-2.001 2.001zM2.82 4.08a1.224 1.224 0 0 0 0 2.448h7.925a1.224 1.224 0 1 0 0-2.448z" class="cls-1" transform="translate(0 0)"/>
        <path id="Path_323" d="M1.089.325L11.645 0a.981.981 0 0 1 1.023 1.023 1.138 1.138 0 0 1-1.088 1.089l-10.556.324A.981.981 0 0 1 0 1.413 1.138 1.138 0 0 1 1.089.325z" class="cls-1" transform="translate(19.134 8.109) rotate(135)"/>
    </g>
</svg>
