<svg xmlns="http://www.w3.org/2000/svg" width="19.896" height="19.896" viewBox="0 0 19.896 19.896">
    <path fill="#fff" d="M14.631 19.9H2a2 2 0 0 1-2-2V8.632a2 2 0 0 1 2-2h1.119V5.2a5.2 5.2 0 0 1 10.394 0v1.432h1.119a1.986 1.986 0 0 1 .905.216l-4.029 4.284-.735-.782a2.988 2.988 0 0 0-4.409 0 3.469 3.469 0 0 0 0 4.69L9.3 18.166a2.988 2.988 0 0 0 4.411 0l2.918-3.1V17.9a2 2 0 0 1-1.998 2zM8.315 3.315a2.081 2.081 0 0 0-2.079 2.079v1.237h4.158V5.394a2.081 2.081 0 0 0-2.079-2.079zm3.192 13.612a1 1 0 0 1-.735-.324l-.023-.025-2.916-3.1a1.155 1.155 0 0 1 0-1.563 1 1 0 0 1 1.47 0l2.2 2.345 6.615-7.034a1 1 0 0 1 1.47 0 1.158 1.158 0 0 1 0 1.563L12.242 16.6a.97.97 0 0 1-.141.126.985.985 0 0 1-.594.2z" transform="translate(0 0)"/>
</svg>
