<svg xmlns="http://www.w3.org/2000/svg" xmlns:xlink="http://www.w3.org/1999/xlink" viewBox="0 0 476.08 78.42"><defs><linearGradient id="a" x1="369" y1="19.26" x2="369" y2="80.23" gradientUnits="userSpaceOnUse"><stop offset="0" stop-color="#ea1b23"/><stop offset="1" stop-color="#a00c10"/></linearGradient></defs><title>sunvegas_l</title><path d="M371.14,57.13l-.05-8.78h17.54V74.2c-13.1,5.24-27.37,3.12-33.34-4.86-6.94-9.28-6.61-26.53.69-35.61,6.56-8.14,19-10.33,30.41-5.12.38,2.89.78,6,1.27,9.71-6.25-2-12.25-4-18.26-2a9.63,9.63,0,0,0-5.21,4.27c-3,5-3.15,10.78-2.15,16.71,1.34,7.89,8.82,12.38,16.06,9.39V57.13ZM323.48,46V35.59h20.21V26.27H312.75V76.84h31.38l.07-9.92H323.43V56h18.16V46ZM395.29,76.8H407l3.17-10.24h15.3l3,10.23h12c-5.4-17.09-10.68-33.79-16-50.61H411.28Zm22.5-37.13c1.6,5.85,3.6,11.69,5.31,17.94H412.48ZM273.91,26.3h-12c5.38,17.14,10.64,33.86,15.89,50.57h13c5.28-16.86,10.52-33.61,15.89-50.75H295q-5.13,18.72-10.22,37.35C281.23,50.81,276.94,38.63,273.91,26.3ZM465.15,76.12A14.79,14.79,0,0,0,476,63.3c.51-6.48-2-10.89-8.29-14C464.9,48,461.85,47,459,45.72c-2.57-1.16-4.66-2.91-3.93-6.13.76-3.38,3.5-4.24,6.51-4.24,3.53,0,10.21,2.65,10.21,2.65l-.46-9.64s-6.56-2.66-12.7-2.39c-8.05.35-13.81,4.81-15.3,11.85-1.53,7.22,1.8,12.92,9.69,16.46,2.57,1.15,5.26,2.06,7.79,3.3,2,1,3.47,2.6,3.13,5.15-.38,2.86-2.52,3.77-4.89,4.2a14.94,14.94,0,0,1-6.44-.33l-8.54-2.26,1,10.07S459.47,77.79,465.15,76.12Z" fill="url(#a)"/><path d="M0,56.67l29.91-4.1c9.32,9.36,25.81,10.89,32.09,3-.41-4-3.86-4.52-6.77-5.34-6.55-1.85-13.18-3.4-19.76-5.15a52,52,0,0,1-13.4-5.31C10.62,32.88,9.32,18.77,19.42,10,26.22,4,34.57,1.86,43.27.85,56.45-.68,69.52-.44,82.19,4.1c8.65,3.1,14,7.51,17.87,14.89l-26.3,4.89c-8.71-7.68-18.94-9.45-25.53-4.59a3,3,0,0,0-1.18,3.25c.54,1.83,2.57,2.45,4.5,3,7.2,2,14.44,3.82,21.69,5.64A40.71,40.71,0,0,1,87.35,37.2c11.19,8,11.57,21.19.84,29.94-6.49,5.3-14.12,8-22.26,9.38C51.11,79.07,36.41,78.62,22,74.07,12.81,71.14,5,66.08,0,56.67ZM108.37,26.19c-2.39,10.18-4.76,20.18-7.09,30.18-.46,1.94-.9,3.9-1.2,5.87-1.12,7.43.87,11.37,8.06,13.94,9.89,3.55,19.66,3.07,28.75-2.76,1.17-.75,5.33-3,5.33-3l-1,6.19h25.26c3.93-17,7.77-33.54,11.69-50.44H151c-.38,1.41-.76,2.67-1.08,4-2,8.06-3.63,16.22-6,24.16s-7.21,10.37-14.44,8.34c-.33-.59-1.17-1.35-1.08-2,1.52-11.53,5.29-22.58,7.51-34.42Zm143.7,17.39c3-10.93-1.72-16.58-12.57-18.6-10.29-1.92-20-.4-28.8,6.34.13-2.06.22-3.49.32-5.1H186.28c-3.95,16.89-7.85,33.57-11.83,50.57h26.48c.39-1.4.78-2.65,1.09-3.93,2.25-9.2,4.42-18.42,6.73-27.6,1.05-4.17,4-6.49,8.19-6.9a16.48,16.48,0,0,1,3-.08,5.07,5.07,0,0,1,4.46,6.19C222,55.1,219.49,65.87,217,76.85H244.2C246.85,65.52,249.08,54.45,252.07,43.58ZM155.22,9.05,149,9l1.37-5.64h-6.72l-4,16.33H146l1.59-5.44h6.58l-1.25,5.44h6.35l4-16.33h-6.64Zm7.83,10.59h16.57l.71-3.23c-.1-.06-10.19-.13-10.19-.13l.8-3.45h7.92l.62-3.3h-7.9l.59-2.85L182,6.9l.63-3.59H166.27ZM124.29,3.31l-.68,4h4.27l-2.7,12.33h7l2.88-12.33h5.08l.94-4Z" fill="#ec1f27"/></svg>