<svg id="Layer_1" data-name="Layer 1" xmlns="http://www.w3.org/2000/svg" viewBox="0 0 385.88 126.66"><title>betfair_logo_yellow</title><g id="Betfair"><path d="M204.54,93.89l-3.08,2.36a16.84,16.84,0,0,0-6.11-5,17.89,17.89,0,0,0-7.85-1.71,17.32,17.32,0,0,0-8.64,2.24,16,16,0,0,0-6.17,6,16.66,16.66,0,0,0-2.19,8.5,16,16,0,0,0,4.89,11.91A17,17,0,0,0,187.74,123a17.37,17.37,0,0,0,13.72-6.42l3.08,2.33a19.73,19.73,0,0,1-7.28,5.75,23,23,0,0,1-9.76,2q-10.23,0-16.15-6.82a20.6,20.6,0,0,1-5-13.91,19.35,19.35,0,0,1,6-14.42,20.71,20.71,0,0,1,15.06-5.85,22.17,22.17,0,0,1,9.87,2.16A19.23,19.23,0,0,1,204.54,93.89Z" fill="#f9b700"/><path d="M225.05,86.64l18.2,39H239l-6.14-12.85H216.09L210,125.68h-4.35l18.44-39Zm-.49,8.3-6.69,14.13h13.35Z" fill="#f9b700"/><path d="M242,118.41l3.32-2q3.5,6.44,8.09,6.44a7.78,7.78,0,0,0,3.69-.91,6.4,6.4,0,0,0,2.62-2.46,6.24,6.24,0,0,0,.91-3.26,6.68,6.68,0,0,0-1.33-3.85,31.8,31.8,0,0,0-6.69-6.26c-3.25-2.46-5.28-4.24-6.07-5.33a9.74,9.74,0,0,1-2.07-6,9,9,0,0,1,1.22-4.65,8.78,8.78,0,0,1,3.43-3.3A10,10,0,0,1,254,85.66,10.29,10.29,0,0,1,259.11,87a17.66,17.66,0,0,1,5.08,5L261,94.47a15.46,15.46,0,0,0-3.76-3.85,6.48,6.48,0,0,0-3.38-.92A5.33,5.33,0,0,0,250,91.13a4.67,4.67,0,0,0-1.5,3.53,6,6,0,0,0,.53,2.47,9.5,9.5,0,0,0,1.94,2.6q.76.73,5,3.9a29.22,29.22,0,0,1,7,6.66,10.69,10.69,0,0,1,1.89,5.86,10,10,0,0,1-3.23,7.38,10.83,10.83,0,0,1-7.84,3.13,11.54,11.54,0,0,1-6.45-1.9A17.35,17.35,0,0,1,242,118.41Z" fill="#f9b700"/><path d="M269.29,86.64h3.9v39h-3.9Z" fill="#f9b700"/><path d="M278.9,125.68v-39h.85l26,29.92v-30h3.85v39h-.88L282.93,96.12v29.56Z" fill="#f9b700"/><path d="M334.4,85.66a20.29,20.29,0,0,1,14.84,5.92,20.61,20.61,0,0,1-29.19,29.11,19.52,19.52,0,0,1-6-14.38,20.83,20.83,0,0,1,2.73-10.43A20.1,20.1,0,0,1,334.4,85.66Zm.17,3.8A16.61,16.61,0,0,0,320.3,97.8a16.85,16.85,0,0,0-2.18,8.52,16.41,16.41,0,0,0,16.28,16.54h.17a16.75,16.75,0,0,0,8.41-2.2,15.72,15.72,0,0,0,6-6,16.84,16.84,0,0,0,2.17-8.5,16.5,16.5,0,0,0-2.17-8.4,16.26,16.26,0,0,0-6.1-6A16.55,16.55,0,0,0,334.57,89.46Z" fill="#f9b700"/><path d="M94.69,68.47V0h8V27A13.55,13.55,0,0,1,109,21.18q3.94-1.77,10.67-1.77,11.63,0,16.4,4.27t4.78,14.86V50q0,10.55-4.78,14.81t-16.4,4.28q-7,0-11.16-2a12.44,12.44,0,0,1-6.1-6.14V68.4Zm8-28.14v7.91q0,7.55,4,11t12.69,3.42q7.91,0,10.51-2.52t2.61-11.68V40.15q0-9.19-2.61-11.73t-10.51-2.53q-8.73,0-12.69,3.43t-4,11Z" fill="#f9b700"/><path d="M173.34,69.12q-12.19,0-17.05-4.23T151.43,50V38.54q0-10.66,4.83-14.9t17-4.23H177q12.19,0,17.05,4.23t4.86,14.9v7.31H159.79c0,.5-.06,1-.08,1.64s0,1.43,0,2.5q0,7.5,2.69,10t10.84,2.55H177c4.85,0,8.23-.62,10.12-1.86s3-3.41,3.31-6.5h8.37q-.62,7.86-5.68,11.35t-16,3.5ZM159.8,39.55h30.79V37.66q0-6.79-2.73-9.24T177,26h-3.78q-8.06,0-10.74,2.44t-2.69,9.24Z" fill="#f9b700"/><path d="M232.91,60.16a5.74,5.74,0,0,1-.36.5c-1.36,1.32-4,2-7.88,2s-6.58-.68-8-2-2.09-4-2.09-7.75V26.17h19.57V20.05H214.6V9.15h-8.06v10.9h-6.67v6.12h6.67V51.83q0,9.8,3.64,13.54t13,3.75a47.46,47.46,0,0,0,9.73-.85Z" fill="#f9b700"/><path d="M239.05,26.17V20.05h10.88V16.79q0-9.25,3.64-13C256,1.29,260.16,0,266.15,0c1.55,0,3.07,0,4.55.09s3,.16,4.44.28V6.9l-1.86-.09c-2.37-.06-4-.1-4.9-.1-4.17,0-6.95.56-8.32,1.68S258,12.31,258,16.79v3.26h10.56v6.12H258v42.3h-8.06V26.17Z" fill="#f9b700"/><path d="M313.44,63.37a10.51,10.51,0,0,1-5.92,4.39,36.79,36.79,0,0,1-11.24,1.36q-12.76,0-17.1-3.24T274.84,53.8a25.19,25.19,0,0,1,1-8,9.53,9.53,0,0,1,3.33-4.64,13.11,13.11,0,0,1,5.76-2.09,72.63,72.63,0,0,1,10.93-.62,44.65,44.65,0,0,1,11.29,1.08A10.75,10.75,0,0,1,313,43.14V34.77q0-5.94-2.58-7.68t-13-1.75c-5,0-8.37.47-10,1.4s-2.52,2.69-2.59,5.27h-8V30.9q0-6.21,4.53-8.85T297,19.41a99.14,99.14,0,0,1,13.12.64,16.67,16.67,0,0,1,6.66,2.07,9,9,0,0,1,3.36,4.09c.66,1.63,1,4.42,1,8.37V68.47h-7.33ZM313,56.15v-5.1c0-2.3-1.31-4-3.95-5.06s-6.83-1.61-12.58-1.61q-7.91,0-10.57,1.77t-2.66,6.78q0,5.7,2.82,7.61t11.29,1.91q7.59,0,11.62-1.63C311.66,59.73,313,58.18,313,56.15Z" fill="#f9b700"/><path d="M330.91,8.09V0h8V8.09Zm0,60.38V20.05h8V68.47Z" fill="#f9b700"/><path d="M384.42,23.22c-2.4-2.54-6.55-3.81-12.48-3.81a22.47,22.47,0,0,0-9.61,1.74A10.94,10.94,0,0,0,357,26.67V20.05h-7.8V68.47h8.11V40.33q0-7.68,3-11.06T370,25.89c3.82,0,6.43.67,7.8,2a5.87,5.87,0,0,1,1.31,2.3l6.77-4.83A9.53,9.53,0,0,0,384.42,23.22Z" fill="#f9b700"/><path d="M88,16.19,61.79,45.51,34.86,16.19S88,16.91,88,16.19Z" fill="#f9b700"/><rect x="49.19" y="3.02" width="24.49" height="19.31" fill="#f9b700"/><path d="M53.15,53.61,26.93,24.3,0,53.61S53.15,52.9,53.15,53.61Z" fill="#f9b700"/><rect x="14.33" y="47.47" width="24.49" height="19.31" fill="#f9b700"/></g></svg>