<svg id="Слой_1" data-name="Слой 1" xmlns="http://www.w3.org/2000/svg" viewBox="0 0 1556.72 353.28"><defs><style>.cls-1{fill:#bfa370;}.cls-2{fill:#c0a472;}</style></defs><path class="cls-1" d="M316.31-196.14c-4.43-26.62-17.6-47.63-40.83-61.83-18.85-11.52-39.71-16-61.5-16.08-33.35-.15-66.7,1.25-100-.07v3.34c.89.22,1.77.49,2.67.68,11.22,2.48,17.14,9.74,19,20.81,1.5,8.71,1.77,17.51,2.06,26.29,1.23,36,1.21,72.07-.57,108.09a84.65,84.65,0,0,1-2,16.24c-2.87,11.56-9.22,17.35-21.2,19.17v3.34a17.66,17.66,0,0,0,2.18.2c30.58-1,61.15-.57,91.72.07,13.58.28,27-1,40.1-4.77,29.49-8.57,51-26.36,62.49-55.19C318.2-155.31,319.74-175.55,316.31-196.14Zm-55.06,63.58c-3.16,13.34-8,26-17.33,36.41a41.24,41.24,0,0,1-31.3,14.38,62.92,62.92,0,0,1-10.54-.38c-7.62-1.15-11.71-4.79-13.63-12.23a64.44,64.44,0,0,1-1.57-14.05c-.76-22.6-1-45.2-1.17-67.81,0-23.07.62-46.13,1.75-69.18a43.22,43.22,0,0,1,2.1-12.81q3.27-9.06,12.83-9.8c12.84-1,25.17.22,35.82,8.52,8.64,6.73,14.39,15.57,18.52,25.55,5.61,13.55,8.2,27.77,9.1,42.36,1.23,19.9,0,39.62-4.58,59Z" transform="translate(21.22 351.66)"/><path class="cls-1" d="M536.14-93.47c-6.81,8.1-19.54,6-23.23-4.66-.49-1.4-1-2.78-1.43-4.2-2.74-9.12-4.2-18.56-6.68-27.75-3.47-13-10-23.84-21.63-31.08-8.61-5.33-18.12-8.22-28-10.08a5.17,5.17,0,0,1-2.63-.89c.15-.3.17-.44.23-.45a12.8,12.8,0,0,1,1.32-.34c12.13-2.28,23.93-5.48,34.84-11.51,18.53-10.25,27-28.63,22.73-49.42-3.07-14.89-12.24-24.79-25.52-31.21-13.67-6.61-28.41-8.85-43.4-9-35.1-.32-70.22,1.36-105.33-.08-.53,0-1.13-.16-1.54.42.05,1-.25,2,.28,3.09l2.07.48c10.23,2.26,16.56,8.34,18.8,18.73a103,103,0,0,1,2,16.52c1.83,35.74,1.74,71.5.57,107.25-.29,9-.51,18-2.08,26.85-1.89,10.63-7.39,18-18.23,20.63l-3.34.81v3.44c32-1.1,63.68-1.1,95.41,0a7.31,7.31,0,0,0,0-3.54l-2.7-.67c-8.68-2.27-14.86-7.2-17.37-16.13a53.73,53.73,0,0,1-2-11.17c-1.25-19.62-1.49-39.26-1.62-58.9,0-1-.32-2,.16-2.73,5.54,0,10.9-.08,16.27,0q14.91.3,21.91,13.55c3.85,7.3,5.48,15.26,7.15,23.22,2.26,10.76,3.7,21.7,7.22,32.17,4.55,13.51,13.15,22.74,27.4,26a69.06,69.06,0,0,0,22.94,1,40.77,40.77,0,0,0,16.8-5.27,26.28,26.28,0,0,0,11.4-13.44ZM433.68-175c-4.16.18-25.36.8-26.12-.21q0-7.47.07-15v-6c-.12-2.46.25-15,.42-18.73.59-12.6.53-25.24,2.2-37.77a29.76,29.76,0,0,1,1.2-5.1c2.09-6.39,6.45-9.93,13.24-10.33a98.29,98.29,0,0,1,10.72,0c11.87,1.17,19.53,7.9,23.82,18.62,4.11,10.3,4.92,21.19,4.38,32.13-.38,7.83-1.37,15.58-4.11,23.09-3.59,9.84-11.22,19-25.82,19.32Z" transform="translate(21.22 351.66)"/><path class="cls-1" d="M1031-134.33c-.61-11.71-5.19-21.65-14.35-29.25-10.08-8.38-22.09-11.9-34.77-13.7-3.46-.5-7-.77-10.45-1.14a2.82,2.82,0,0,1,2-1,75.59,75.59,0,0,0,18-3.83c16.39-5.74,28-15.95,30.76-33.94,2.75-18.17-3.35-34-21.47-43.21a75.14,75.14,0,0,0-16.78-5.94c-13.74-3.25-27.73-3.61-41.75-3.52-28.39.19-56.77.82-85.16-.21a6.36,6.36,0,0,0-3.21.22V-267c.72.72,1.58.63,2.36.81,9.87,2.22,16,8.11,18.19,18.11a98.29,98.29,0,0,1,1.94,16.12c1.79,35.06,1.71,70.13.55,105.2-.29,8.66-.5,17.34-2,25.92-1.87,10.37-7.29,17.5-17.89,20l-3.1.75c-.06,1.19-.37,2.26.23,3.27a6,6,0,0,0,.85.09c33-1.17,66-.3,99-.23A148.84,148.84,0,0,0,984-79.61c11.94-2.45,23.1-6.64,32.22-15C1027.91-105.29,1031.81-119,1031-134.33ZM924.58-224.11c.22-6,.23-12,.7-18,.37-4.68.84-9.4,2.69-13.82,2.11-5,5.64-8.15,11.31-8.39,3.1-.12,5-.08,8,0a23.15,23.15,0,0,1,3.33.3c11.83,2,18.13,9.83,21.38,21.32a61.74,61.74,0,0,1,2.13,20.11c-.53,10.18-1.86,20.23-7.25,29.2-4.58,7.63-11.14,12.38-20.3,13-5.71.84-21,1.07-22.82-.2q0-8.64-.05-17.3C923.72-201.22,924.42-217.19,924.58-224.11Zm50,126.8c-4.62,10.08-13.15,15-24.38,14.92-2.62,0-5.25,0-7.87-.06-10.09-.4-15-4.8-16.48-14.76-1.44-9.69-1.22-19.47-1.5-29.22-.41-14.9-.43-29.82-.61-44.74,0-.89,0-1.78,0-2.85,9.52,0,18.77-.51,27.93.13,11.56.82,20.32,6.93,24.59,17.7,7.81,19.72,7.14,39.62-1.68,58.88Z" transform="translate(21.22 351.66)"/><path class="cls-1" d="M1212-206.82l-3.08.29c-4.14-6.75-8.25-13.52-12.43-20.23-5.6-9-11.33-17.84-18.67-25.55-7.76-8.16-17.1-12.45-28.47-12.08-3.53.12-7.06,0-10.58.11-10.33.44-15.51,5-17.11,15.27-1.64,10.56-1.61,21.26-2,31.91-.42,11.2-.45,22.42-.64,33.63,0,.88,0,1.76,0,2.93,7.76-.27,15.37.7,22.85-.78,11.76-2.33,18.53-10.43,23.28-20.74,2.6-5.65,4.24-11.63,6-17.58h3.4q-1.12,42.19,0,84.2c-1.08.65-2.09.27-3.3.38-1-3.21-1.87-6.48-2.94-9.69a55.44,55.44,0,0,0-10-18.74,29.47,29.47,0,0,0-21.88-10.92c-5.68-.26-11.38-.05-17.2-.05a3.78,3.78,0,0,0-.24,1c.25,23,.23,45.93,1.51,68.87a41.62,41.62,0,0,0,1.1,6.94c1.87,8.14,6.62,13.42,15.12,14.42,8.18,1,16.45,1.3,24.55-.48,9.42-2.06,16-8.35,21.65-15.76,8.08-10.61,13.92-22.54,20.09-34.27,2.56-4.85,5-9.78,7.56-14.8l3.14.25c-2.81,23.87-4.38,47.63-5.15,71.6-53.25,0-106.28-1-159.44,0V-80q1-.34,1.95-.6c11.17-2.19,17-9.33,19-20.19,1.58-8.67,1.78-17.45,2.06-26.2,1.15-35,1.24-70-.55-104.94A98.14,98.14,0,0,0,1069.7-248c-2.21-10.14-8.44-16-18.42-18.21a3.81,3.81,0,0,1-2.08-.7,3.42,3.42,0,0,1-.13-.71c0-.72,0-1.44,0-2.43,52.21,1.26,104.34-.17,156.67,0C1207.11-248.89,1209.28-227.91,1212-206.82Z" transform="translate(21.22 351.66)"/><path class="cls-1" d="M1295.73-263.38c-11.37-2-19.87,2.39-27.1,10.22-8.08,8.76-14.3,18.82-20.35,29-5,8.36-9.74,16.83-14.59,25.23a7.31,7.31,0,0,1-3.49-.54c2.35-23.39,4-46.88,5.15-70.59,56.4.63,112.6.05,169,0,1.28,23.64,2.56,47.15,5.15,70.46-1.16.86-2.28.51-3.35.81-5-8.5-9.83-16.95-14.85-25.28-6-10-12.19-19.86-20.16-28.46a50.86,50.86,0,0,0-8.38-7.26c-5.69-4-12-4.41-18.81-3.78-.09,1.95-.2,3.83-.26,5.72q-1.48,57.5-.58,115c.19,11.75.57,23.5,1.58,35.21a53.71,53.71,0,0,0,1.82,9.83c2.81,10,10.09,14.93,19.73,17.1.79.18,1.58.36,2.37.56a3.51,3.51,0,0,1,.6.33v3.15q-49.5-1.56-98.61,0c-.63-1.12-.18-2.12-.43-3.26,1.64-.43,3.16-.88,4.7-1.25,11.18-2.71,17.38-9.94,19.38-21.09,1.7-9.48,1.74-19.08,2-28.64,1.36-42.67.53-85.34-.58-128C1295.69-260.46,1295.73-262,1295.73-263.38Z" transform="translate(21.22 351.66)"/><path class="cls-1" d="M679.19-128.21c0,2.19-.06,4.41-.09,6.64H679C679.09-123.78,679.14-126,679.19-128.21Z" transform="translate(21.22 351.66)"/><path class="cls-1" d="M825.2-148.09c-.06-3.3-.11-6.41-.11-9.29V-309.75l-5.34-1.54c-5.47-1.6-17-5.83-30.37-10.73-34.13-12.51-80.88-29.64-97.56-29.64S628.41-334.53,594.28-322c-13.37,4.9-24.91,9.13-30.37,10.73l-5.34,1.54v152.37c0,22.09,1.62,54,15.6,75.71,12.34,19.19,93.36,70,94.16,70.47C678.45-5.1,685.74-1.36,688.41,0l3.41,1.67L695.24,0c2.66-1.32,10-5,20.08-11.16l1.61-1c57.11-34.4,89.69-57.47,96.83-68.58C826-99.8,825.56-126.57,825.2-148.09Zm-19.7,62c-2.87,4.45-17.73,19.75-93.64,65.47l-1.61,1c-8.79,5.3-15.32,8.72-18.43,10.29-3.1-1.57-9.63-5-18.42-10.29-13.21-8-81.46-52.58-91-67.37-12.59-19.57-14.05-49.55-14.05-70.4v-145c6.13-1.92,16.48-5.71,29.26-10.4,31.55-11.57,79.24-29,94.17-29s62.63,17.48,94.18,29c12.78,4.68,23.12,8.48,29.26,10.4v145c0,3,0,6.12.11,9.46.35,20.18.78,45.31-9.87,61.86Z" transform="translate(21.22 351.66)"/><path class="cls-1" d="M752.25-134.36c-3.15-8-9.63-12.47-18.18-13.07-6.77-.49-13.6-.1-20.64-.1,0,.78,0,1.45,0,2.1.13,11,.14,22.05.45,33.06.2,7.2,0,14.44,1.1,21.6,1.1,7.36,4.73,10.62,12.18,10.91,1.94.08,3.88,0,5.82,0,8.3.07,14.61-3.57,18-11C757.53-105.08,758-119.78,752.25-134.36Zm0,0c-3.15-8-9.63-12.47-18.18-13.07-6.77-.49-13.6-.1-20.64-.1,0,.78,0,1.45,0,2.1.13,11,.14,22.05.45,33.06.2,7.2,0,14.44,1.1,21.6,1.1,7.36,4.73,10.62,12.18,10.91,1.94.08,3.88,0,5.82,0,8.3.07,14.61-3.57,18-11C757.53-105.08,758-119.78,752.25-134.36Zm0,0c-3.15-8-9.63-12.47-18.18-13.07-6.77-.49-13.6-.1-20.64-.1,0,.78,0,1.45,0,2.1.13,11,.14,22.05.45,33.06.2,7.2,0,14.44,1.1,21.6,1.1,7.36,4.73,10.62,12.18,10.91,1.94.08,3.88,0,5.82,0,8.3.07,14.61-3.57,18-11C757.53-105.08,758-119.78,752.25-134.36Zm0,0c-3.15-8-9.63-12.47-18.18-13.07-6.77-.49-13.6-.1-20.64-.1,0,.78,0,1.45,0,2.1.13,11,.14,22.05.45,33.06.2,7.2,0,14.44,1.1,21.6,1.1,7.36,4.73,10.62,12.18,10.91,1.94.08,3.88,0,5.82,0,8.3.07,14.61-3.57,18-11C757.53-105.08,758-119.78,752.25-134.36Zm0,0c-3.15-8-9.63-12.47-18.18-13.07-6.77-.49-13.6-.1-20.64-.1,0,.78,0,1.45,0,2.1.13,11,.14,22.05.45,33.06.2,7.2,0,14.44,1.1,21.6,1.1,7.36,4.73,10.62,12.18,10.91,1.94.08,3.88,0,5.82,0,8.3.07,14.61-3.57,18-11C757.53-105.08,758-119.78,752.25-134.36Zm0,0c-3.15-8-9.63-12.47-18.18-13.07-6.77-.49-13.6-.1-20.64-.1,0,.78,0,1.45,0,2.1.13,11,.14,22.05.45,33.06.2,7.2,0,14.44,1.1,21.6,1.1,7.36,4.73,10.62,12.18,10.91,1.94.08,3.88,0,5.82,0,8.3.07,14.61-3.57,18-11C757.53-105.08,758-119.78,752.25-134.36Zm0,0c-3.15-8-9.63-12.47-18.18-13.07-6.77-.49-13.6-.1-20.64-.1,0,.78,0,1.45,0,2.1.13,11,.14,22.05.45,33.06.2,7.2,0,14.44,1.1,21.6,1.1,7.36,4.73,10.62,12.18,10.91,1.94.08,3.88,0,5.82,0,8.3.07,14.61-3.57,18-11C757.53-105.08,758-119.78,752.25-134.36Zm0,0c-3.15-8-9.63-12.47-18.18-13.07-6.77-.49-13.6-.1-20.64-.1,0,.78,0,1.45,0,2.1.13,11,.14,22.05.45,33.06.2,7.2,0,14.44,1.1,21.6,1.1,7.36,4.73,10.62,12.18,10.91,1.94.08,3.88,0,5.82,0,8.3.07,14.61-3.57,18-11C757.53-105.08,758-119.78,752.25-134.36Zm0,0c-3.15-8-9.63-12.47-18.18-13.07-6.77-.49-13.6-.1-20.64-.1,0,.78,0,1.45,0,2.1.13,11,.14,22.05.45,33.06.2,7.2,0,14.44,1.1,21.6,1.1,7.36,4.73,10.62,12.18,10.91,1.94.08,3.88,0,5.82,0,8.3.07,14.61-3.57,18-11C757.53-105.08,758-119.78,752.25-134.36Zm0,0c-3.15-8-9.63-12.47-18.18-13.07-6.77-.49-13.6-.1-20.64-.1,0,.78,0,1.45,0,2.1.13,11,.14,22.05.45,33.06.2,7.2,0,14.44,1.1,21.6,1.1,7.36,4.73,10.62,12.18,10.91,1.94.08,3.88,0,5.82,0,8.3.07,14.61-3.57,18-11C757.53-105.08,758-119.78,752.25-134.36Zm-73.06,5.7q.24-11.9.18-23.8c0,7.26-.09,15.4-.18,23.8Zm73.06-5.7c-3.15-8-9.63-12.47-18.18-13.07-6.77-.49-13.6-.1-20.64-.1,0,.78,0,1.45,0,2.1.13,11,.14,22.05.45,33.06.2,7.2,0,14.44,1.1,21.6,1.1,7.36,4.73,10.62,12.18,10.91,1.94.08,3.88,0,5.82,0,8.3.07,14.61-3.57,18-11C757.53-105.08,758-119.78,752.25-134.36Zm-73.06,5.7q.24-11.9.18-23.8c0,7.26-.09,15.4-.18,23.8Zm73.06-5.7c-3.15-8-9.63-12.47-18.18-13.07-6.77-.49-13.6-.1-20.64-.1,0,.78,0,1.45,0,2.1.13,11,.14,22.05.45,33.06.2,7.2,0,14.44,1.1,21.6,1.1,7.36,4.73,10.62,12.18,10.91,1.94.08,3.88,0,5.82,0,8.3.07,14.61-3.57,18-11C757.53-105.08,758-119.78,752.25-134.36Zm0,0c-3.15-8-9.63-12.47-18.18-13.07-6.77-.49-13.6-.1-20.64-.1,0,.78,0,1.45,0,2.1.13,11,.14,22.05.45,33.06.2,7.2,0,14.44,1.1,21.6,1.1,7.36,4.73,10.62,12.18,10.91,1.94.08,3.88,0,5.82,0,8.3.07,14.61-3.57,18-11C757.53-105.08,758-119.78,752.25-134.36Zm0,0c-3.15-8-9.63-12.47-18.18-13.07-6.77-.49-13.6-.1-20.64-.1,0,.78,0,1.45,0,2.1.13,11,.14,22.05.45,33.06.2,7.2,0,14.44,1.1,21.6,1.1,7.36,4.73,10.62,12.18,10.91,1.94.08,3.88,0,5.82,0,8.3.07,14.61-3.57,18-11C757.53-105.08,758-119.78,752.25-134.36Zm0,0c-3.15-8-9.63-12.47-18.18-13.07-6.77-.49-13.6-.1-20.64-.1,0,.78,0,1.45,0,2.1.13,11,.14,22.05.45,33.06.2,7.2,0,14.44,1.1,21.6,1.1,7.36,4.73,10.62,12.18,10.91,1.94.08,3.88,0,5.82,0,8.3.07,14.61-3.57,18-11C757.53-105.08,758-119.78,752.25-134.36Zm0,0c-3.15-8-9.63-12.47-18.18-13.07-6.77-.49-13.6-.1-20.64-.1,0,.78,0,1.45,0,2.1.13,11,.14,22.05.45,33.06.2,7.2,0,14.44,1.1,21.6,1.1,7.36,4.73,10.62,12.18,10.91,1.94.08,3.88,0,5.82,0,8.3.07,14.61-3.57,18-11C757.53-105.08,758-119.78,752.25-134.36Zm0,0c-3.15-8-9.63-12.47-18.18-13.07-6.77-.49-13.6-.1-20.64-.1,0,.78,0,1.45,0,2.1.13,11,.14,22.05.45,33.06.2,7.2,0,14.44,1.1,21.6,1.1,7.36,4.73,10.62,12.18,10.91,1.94.08,3.88,0,5.82,0,8.3.07,14.61-3.57,18-11C757.53-105.08,758-119.78,752.25-134.36Zm0,0c-3.15-8-9.63-12.47-18.18-13.07-6.77-.49-13.6-.1-20.64-.1,0,.78,0,1.45,0,2.1.13,11,.14,22.05.45,33.06.2,7.2,0,14.44,1.1,21.6,1.1,7.36,4.73,10.62,12.18,10.91,1.94.08,3.88,0,5.82,0,8.3.07,14.61-3.57,18-11C757.53-105.08,758-119.78,752.25-134.36Zm0,0c-3.15-8-9.63-12.47-18.18-13.07-6.77-.49-13.6-.1-20.64-.1,0,.78,0,1.45,0,2.1.13,11,.14,22.05.45,33.06.2,7.2,0,14.44,1.1,21.6,1.1,7.36,4.73,10.62,12.18,10.91,1.94.08,3.88,0,5.82,0,8.3.07,14.61-3.57,18-11C757.53-105.08,758-119.78,752.25-134.36Z" transform="translate(21.22 351.66)"/><path class="cls-1" d="M807.05-159.22V-292.67l-1.62-.47c-17.19-5-93.5-36.06-113.59-36.06s-96.4,31-113.59,36.06l-1.61.47v133.45c0,18.82,1.35,47,13.31,65.57,9.48,14.76,73.35,56,83.08,61.87,10.56,6.36,17.54,9.75,17.83,9.9l1,.47,1-.47c.29-.15,7.27-3.54,17.83-9.9,9.74-5.88,77.45-46.27,86.93-61C809.54-111.39,807.05-140.4,807.05-159.22Zm-151,8.09c-20.9-.44-41.79-.72-62.69-.05a10.73,10.73,0,0,1-1.49-.14v-2.28c8.2-1.24,12.54-5.2,14.49-13.1a57.6,57.6,0,0,0,1.37-11.1c1.22-24.62,1.23-49.24.39-73.88a132,132,0,0,0-1.41-18c-1.3-7.56-5.34-12.52-13-14.22-.62-.13-1.22-.31-1.83-.46v-2.29c22.79.91,45.59,0,68.38.05,14.89.08,29.15,3.12,42,11,15.87,9.7,24.88,24.06,27.91,42.26.41,2.43.71,4.87.91,7.3-13.43-.18-26-.3-35.23-.29,0-1.3-.11-2.61-.19-3.91a89.11,89.11,0,0,0-6.22-29c-2.82-6.82-6.75-12.86-12.66-17.46-7.27-5.67-15.7-6.5-24.47-5.82a9.45,9.45,0,0,0-8.78,6.7,29.59,29.59,0,0,0-1.43,8.76c-.78,15.75-1.22,31.51-1.2,47.28.1,15.45.28,30.9.8,46.35a44.29,44.29,0,0,0,1.08,9.6c1.3,5.08,4.11,7.57,9.31,8.35a42.27,42.27,0,0,0,7.2.26,32.07,32.07,0,0,0,3.79-.29v4.24Q659.62-151,656.08-151.13ZM781.83-88.84c-6.75,6.18-15,9.27-23.82,11.08a109,109,0,0,1-22.3,2c-24.39-.06-48.78-.7-73.16.17a3.38,3.38,0,0,1-.63-.07,4,4,0,0,1-.16-2.42l2.28-.54c7.83-1.89,11.85-7.15,13.22-14.82,1.15-6.34,1.29-12.76,1.51-19.16.1-3,.18-6,.26-9,.06-2.21.11-4.43.16-6.64v-.45c.09-8.4.18-16.53.18-23.8,0-8.41,0-15.66-.26-20.81H679q-.24-8.53-.67-17.08a72.4,72.4,0,0,0-1.44-11.92c-1.63-7.39-6.15-11.75-13.44-13.38-.58-.13-1.22-.07-1.75-.6v-2.1a4.65,4.65,0,0,1,2.37-.17c9.53.35,19,.44,28.58.42l47.7.2v-.22a97.65,97.65,0,0,1,17.52,2.37,54.92,54.92,0,0,1,12.4,4.38c13.39,6.79,17.9,18.51,15.87,31.94s-10.62,20.85-22.74,25.08a55.68,55.68,0,0,1-13.27,2.83,2.12,2.12,0,0,0-1.48.74c2.57.27,5.17.48,7.73.84,9.36,1.33,18.25,3.93,25.7,10.12a29,29,0,0,1,10.61,21.63C793.33-106.89,790.45-96.73,781.83-88.84Z" transform="translate(21.22 351.66)"/><path class="cls-1" d="M750.67-183.43c-.39,7.53-1.39,15-5.36,21.59-3.39,5.64-8.24,9.15-15,9.57-4.22.62-15.56.79-16.88-.15,0-4.25,0-8.52,0-12.78,0-1,.12-3.72.23-6.87-.23-10.1-.07-9.32-.23-21-.11-7.8,0-11.95-.24-21.2.55,0,13,.05,18.06.11,1,0,1.77,0,2,.06h.07c8.74,1.51,13.39,7.27,15.8,15.76A45.67,45.67,0,0,1,750.67-183.43Z" transform="translate(21.22 351.66)"/><path class="cls-2" d="M59.12-180.47,42.71-194.29H32.34v-9.5l-13-16.41L5.56-203.79v9.5H-5.67l-15.55,13.82,15.55,13.82H5.56v11.23l13.82,14.69,13-14.69v-11.23H42.71Zm1476.37,0-17.27-13.82h-9.5v-9.5l-13.83-16.41-13,16.41v9.5h-12.09l-14.69,13.82,14.69,13.82h12.09v11.23l13,14.69,13.82-14.68v-11.23h9.5Z" transform="translate(21.22 351.66)"/></svg>