<svg id="svg5231" xmlns="http://www.w3.org/2000/svg" viewBox="0 0 936.216 279.425"><defs><style>.cls-1{fill:#fff;}</style></defs><path class="cls-1" d="M173.61-63.06s23.43-37.14,32.52-56.1c3.12-6.5,5.95-12.86,12.53-16.71,20.53-12,41.02-24.07,61.68-36.2,5.65,16.83,17.6,25.59,33.22,30.2,14.01,4.14,28.38,3.32,42.65,2.44,23.43-1.44,42.64-11.58,57.25-29.66,13.33-16.51,13.18-30.75.47-47.77-8.45-11.32-20.07-19.01-31.39-27.11-10.66-7.63-21.46-15.07-30.5-24.78-6.96-7.47-5.8-14.42.69-20.49,14.76-13.79,33.21-19.93,52.81-23.1,2.53-.41,5.51-.41,6.71,2.74,1.04,2.73-.08,5.16-1.78,7.27-3.74,4.67-7.68,9.18-11.37,13.9-3.62,4.64-4.14,9.76-.16,14.26,3.71,4.18,8.83,4.05,13.45,1.61a58.73,58.73,0,0,0,18.73-15.92c18.34-23.26,12.113-45.993-17.47-49.05a56.264,56.264,0,0,0-13.26.74c-17.13,3.13-33.62,7.97-48.41,17.46-40.95,26.28-43.58,54.5-3.06,86.43,10.58,8.34,22.56,14.97,32.95,23.51,12.95,10.64,12.42,20.09-.27,31.42-13.09,11.71-46.09,15.9-62.25,7.91-8.82-4.37-9.89-10.98-2.33-17.32,4.86-4.08,10.56-7.15,15.53-11.11,4.58-3.66,8.46-8.4,4.91-14.48-3.72-6.37-9.77-6.07-15.88-3.4-13.27,5.8-25.17,13.37-33.96,25.17-1.63,2.19-2.28,6.1-6.37,5.28-10.24-2.02-18.12,3.76-26.29,8.01-10.02,5.21-19.71,11.05-31.4,17.76-.84.48-1.7.98-2.57,1.47q.645-1.4,1.23-2.7c3.16-6.93,5.52-12.29,8.09-17.55,6.52-13.4,13.29-26.68,19.71-40.13,2.44-5.11,4.71-11.02-.62-15.47-5.8-4.84-10.48-.21-14.8,3.38-20.84,17.34-38.93,37.53-58.82,55.85-2.61,2.41-4.6,5.98-9.12,6.46-.23.03-.46.05-.7.06-.02-.2-.03-.41-.04-.61-.18-4.74,1.87-8.16,3.47-11.69,6.31-13.9,12.9-27.68,18.79-41.74,2-4.78,5.44-11.14-2.55-14.3-6.61-2.61-10.79,1.73-13.95,6.6a174.136,174.136,0,0,0-16.27,33.07,23.921,23.921,0,0,1-8.36,11.47,139.825,139.825,0,0,1-49.53,23.33c-6.32,1.56-12.66,1.75-18.79-1.17-4.87-2.32-5.69-4.82-.46-7.61,2.96-1.58,6.07-2.89,9.09-4.37,13.5-6.57,27.27-12.82,38.4-23.13,10.49-9.71,14.53-23.87,9.9-32.05-4.98-8.78-21.68-13.75-34.63-10.31a27.725,27.725,0,0,0-3.27.91c-18.89,7.83-34.69,19.49-45.14,37.26-10.04,17.08-9.16,37,1.72,50.5,6.69,8.3,17.33,12.53,29.76,12.33a62.086,62.086,0,0,0,17.04-2.79c10.7-3.24,20.79-7.87,31.22-13.21q2.865-1.47,5.77-3c.21-.11.43-.22.65-.34-.04.26-.09.52-.13.78-.03.17-.06.33-.09.5-1.26,6.95-3.25,14.28,3.56,17.7,7.4,3.71,15.35,1.12,22.35-3.53a194.867,194.867,0,0,0,26.57-20.79c6.07-5.75,12.33-11.29,18.51-16.92.08-.08.17-.15.25-.23l.33-.3c-.04.13-.09.25-.13.38a4.938,4.938,0,0,1,1.36.86c2.99,2.6,1.43,6.41-.08,9.4-8.28,16.35-15.2,33.42-26.43,48.22-7.48,9.86-15.51,19.34-21.7,30.11-4.65,8.08-7.74,16.32-2.74,25.46C165.46-59.55,169.92-57.281,173.61-63.06ZM781.62-198.14c-.22-.3-.44-.58-.65-.83-4.9-5.95-7.88-2.21-11.18.71-10.98,9.72-22.51,18.74-35.29,26.02-5.58,3.18-11.3,6.79-18.73,4.98,4.62-14.61,13.12-26.72,18.44-40.21,4.46-11.33,8.29-24.28-2.31-33.42-9.53-8.21-21.45-3.97-31.82,1.28-8.68,4.4-17.08,9.32-25.98,14.21-1.71-5.29-1.48-11.27-8.2-12.4-7.25-1.22-9.92,4.33-12.71,9.01-4.96,8.32-9.62,16.84-14.02,25.47-8.97,17.58-24.23,28.02-41.43,36.15-3.62,1.71-8.58,2.81-11.79-.35-3.32-3.28-1.42-7.59.39-11.42,5.42-11.46,11.3-22.75,15.94-34.52,3.06-7.76,7.53-18.25-2.04-23.22-10.14-5.28-15.68,4.97-19.4,12.24-12.7,24.81-34.09,40.33-56.98,54.31-6.4,3.91-13.32,8.29-22.02,5.84-.01,0-.03-.01-.04-.01a.037.037,0,0,1,.01-.03c1.31-5.92,5.71-9.05,9.1-12.89,9.92-11.23,22.23-20.37,30.03-33.42,10.07-16.88,2.16-30.88-17.64-32.29-16.04-1.14-27.8,7.77-39.93,15.81-5.54,3.68-9.52,5.51-9.66-3.7-.06-3.72-1.61-6.7-5.33-7.66-4.19-1.08-7.3,1.02-9.44,4.51-3.71,6.04-7.88,11.87-10.92,18.23-18.99,39.68-36.77,79.95-59.93,117.56-4.45,7.22-6.52,16.74,2.6,21.81,8.23,4.56,13.85-2.29,18.16-8.81a133.635,133.635,0,0,0,7.05-11.44c11.96-22.8,24.15-45.5,35.57-68.56,10.45-21.08,26.83-36.81,45.16-50.66,5.67-4.28,14.05-11.98,20.59-3.61,5.84,7.49-3.35,13.25-8.09,18.44-8.59,9.43-17.76,18.34-26.74,27.41-6.64,6.73-11.81,14.13-7.51,23.9,3.01,6.83,17.53,11.25,27.23,9.13,13.06-2.87,24.64-8.79,35.44-16.49,5.44-3.88,10.4-8.59,17.25-10.88.61,1.95,1.26,3.69,1.69,5.48,4.82,20.16,18.35,27.31,37.87,19.78,6.63-2.57,13.09-5.6,19.58-8.53,2.47-1.12,3.83-2.42,5.68,1.61,5.9,12.85,12.54,13.44,21.41,1.86,7.51-9.8,13.16-20.81,18.76-31.81a84.794,84.794,0,0,1,36.51-37c3.44-1.84,7.21-3.34,10.65-1.14,4.32,2.76,1.38,6.6.45,10.07-2.14,8.02-6.35,15.05-10.39,22.2-5.3,9.39-11.57,18.46-12.4,29.66-1.18,15.98,6.63,22.39,22.07,18.16,2.87-.78,5.55-2.26,8.31-3.43,24.77-10.52,47.14-24.67,66.63-44.48C786.253-189.937,786.421-193.286,781.62-198.14Zm-710.6,5.87c3.1-11.55,25.23-30.27,37.13-31.58,5.73-.63,7.76,1.58,5.67,7.14-2.62,6.94-31.96,29.49-39.45,30.21C69.1-185.99,70.29-189.56,71.02-192.27Z" transform="translate(151.058 339.28)"/><path class="cls-1" d="M85.38-322.02c-8.37,24.36-20.75,46.97-31.67,70.23-3.8,8.1-8.46,15.83-11.95,24.05-2.42,5.72-7.73,11.14-.11,18.25,4.5,4.21-.9,9.4-5.72,10.66-7.16,1.88-9.94,6.71-12.85,12.67A250.4,250.4,0,0,1,.82-148.64c-2.67,3.68-5.48,7.11-9.32,9.62-4,2.61-8.23,4.16-12.54,1.11-4.45-3.15-3.97-7.69-2.47-12.16,4.28-12.81,11.43-24.27,17.58-36.18,2.81-5.44,2.88-7.77-4.49-7.44-12.8.57-25.65.68-38.46.21-6.11-.22-9.32,1.54-12.14,7.08a305.744,305.744,0,0,1-17.55,29.91c-21.61,32.731-48.654,29.742-71.364.227a5.519,5.519,0,0,1,.582-7.324s14.272-20.943,27.872.027c4.96,7.65,9.74,8.14,16.14,1.85,8.46-8.32,13.11-18.99,18.99-28.92,2.22-3.74.54-5.39-2.54-6.9-4-1.96-6.99-4.68-5.72-9.59,1.05-4.08,4.07-6.17,8.23-6.49,11.74-.9,15.86-8.98,19.12-18.74,9.09-27.19,17.54-54.56,24.46-82.37,2.27-9.1,5.52-17.44,11.71-24.56h9.05c5.44,7.52,6.76,15.23,5.19,24.81-5.43,33.06-16.92,64.21-29.58,96.83-.08.22-.17.43-.25.65h.98c16.99-.01,32.85-.17,48.71.08,6.2.09,7.06-4.67,9.03-8.45,14.26-27.42,28.3-54.97,42.73-82.31a201.92,201.92,0,0,1,14.21-22.81c3.04-4.28,7.69-8.29,13.4-5.47C88.34-333.01,87.11-327.04,85.38-322.02Z" transform="translate(151.058 339.28)"/><path class="cls-1" d="M611.58-249c-6.93-.48-13.16-3.73-13.52-12.99-.36-9.2,10.68-18.83,21.22-19.18,8.31-.28,12.62,3.95,13.15,11.81C633.14-258.74,623.88-249.24,611.58-249Z" transform="translate(151.058 339.28)"/></svg>