<svg id="Слой_1" data-name="Слой 1" xmlns="http://www.w3.org/2000/svg" viewBox="0 0 582.13 219.55"><title>hopa_d</title><path d="M709.14,604.11a30.43,30.43,0,0,1-4.64,16.12c-4,6.63-10.4,10-19.22,10.06q-86.31.13-172.61.17c-14.49,0-23.49-7.49-25.41-20.71a50.49,50.49,0,0,1-.3-7.28q0-81,0-162a64.6,64.6,0,0,1,1.25-13.36c1.86-8.88,7.68-13.92,18.4-15.24a119.11,119.11,0,0,1,14.63-.93q80.25.12,160.52.42c16.49.05,26.19,7.5,27.06,21.48.58,9.3.11,18.65.11,27.85l-.3,21,.27,64.14C709,565.25,709,584.68,709.14,604.11Z" transform="translate(-486.94 -410.91)" fill="#fff"/><path d="M558.09,524.18c5.06-.23,9.68-2,14.46-3.24,14.08-3.61,28.16-7.23,42.18-11,8.67-2.33,10.2-4,10.14-11.4-.06-6.5-.7-13-.93-19.51a23.36,23.36,0,0,1,4.15-13.95,18.63,18.63,0,0,1,3.7-4c3.62-2.94,9.67-3.81,14.12-2.2s5.45,4.89,5.47,8.35c.08,12.1.32,24.18,1.51,36.26,1.71,17.42,3.34,34.84,8,52a28.93,28.93,0,0,1,.74,4.42c.81,7.15-3.62,11.27-13.1,12.24-8.13.83-12.34-2-13.88-9.33-2-9.37-2.46-18.86-3.73-28.28-.83-6.18-2.83-7.48-10.3-6.16-15.62,2.75-30.29,7.87-45.36,12-13.51,3.71-14.81,1.4-13.83,15.81.48,7.06,1.06,14.12,1.26,21.18s-3.13,10.35-10.49,10.78c-9.39.55-14.26-2.37-15.15-9.71a155.7,155.7,0,0,1-.7-16.17c-.26-16.21-3-32.27-4.82-48.37-1.18-10.19-2.49-20.36-3.57-30.55-.81-7.61,2.86-11.44,11.19-12.09s13,2.54,13.89,10.09c1.47,12.41,2.66,24.83,4,37.25C557.17,520.38,556.71,522.28,558.09,524.18Z" transform="translate(-486.94 -410.91)"/><path d="M947.11,549.11a88.75,88.75,0,0,1-6.57-14.42c-3.48-10.57-2.64-21.15.46-31.69,3.17-10.83.8-15.39-11.71-19-19.1-5.55-38-4.44-55,5-15.92,8.76-20.64,22.61-21.63,37.36.24,11.81,4.53,21.63,15.7,28.92,14,9.13,29.22,9.94,45.06,4.27,6.22-2.24,11.24-2.9,16.72,1.46,4.16,3.31,10.68,2.65,15.09-.42C949.19,557.74,949.85,554.13,947.11,549.11Zm-55-5.71c-7.24-.48-10.18-5.1-12-10.28-5.83-16.1,6.16-32,25.39-33.78a12.85,12.85,0,0,1,9,2c-2.49,12,0,24.27,1.71,36.47C906.64,545.13,900.64,544,892.16,543.4Z" transform="translate(-486.94 -410.91)" fill="#fff"/><path d="M847.91,536.4c-.25-3.63-.52-7.07-1-10.66-3.51-24.16-30.78-33.25-50.84-26.92-2.52.8-5,1.77-8.6,1.67-1.27-1.52-2.55-2.87-3.6-4.33-2.08-2.89-5.09-4.19-9.05-4.4-9.9-.53-16.54,4.68-15.8,13.35.46,5.34.75,87.6.41,99.63a17.36,17.36,0,0,0,1,5.66c1.36,4.33,6.3,6.81,12.94,6.69,6.4-.13,9.39-2,10.86-6.82,1.2-3.95.86-7.44.85-11.44,0-19.82,0-.54,0-20.37,5.69.13,14.19.22,19.42.45a49.67,49.67,0,0,0,14.16-1.42C837.77,572.79,849.15,554.33,847.91,536.4Zm-24.64,1.53a32.14,32.14,0,0,1-2.39,9.74c-3.42,9.17-17.43,13.77-28.18,10.68-4.1-1.19-6-3.28-6-6.75,0-5.9-.19-11.78-.7-17.69-.84-9.56,11.66-17.94,23-16.07a17.08,17.08,0,0,1,12.62,9.51C823.62,531.47,823.35,536.68,823.27,537.93Z" transform="translate(-486.94 -410.91)" fill="#fff"/><path d="M708.65,522.7c13.21-1.47,19.69-7.42,19.48-19.35-.22-12.26-6.7-19.29-19.52-19.55,0-6.85.21-13.71.26-20.56A50.15,50.15,0,0,1,724.76,466c16.75,5.67,28.24,20.39,28.63,36.27.41,16.29-11,32.3-27.89,38.23-5.2,1.83-16.6,3.26-16.76,3.26" transform="translate(-486.94 -410.91)" fill="#fff"/><path d="M708.87,543.73c-3.5-.42-6.82-1-10.23-1.63-21.45-4.31-32.55-15.57-33.5-33.89s10.43-37.13,29.29-42.35a72.61,72.61,0,0,1,14.44-2.62c0,6.85-.28,13.71-.26,20.56a26,26,0,0,0-15.94,5.79c-3.32,2.83-5.66,9.86-4.73,17.07,1.4,10.87,9.35,16.12,20.84,16C708.78,522.69,708.87,536.68,708.87,543.73Z" transform="translate(-486.94 -410.91)"/><path d="M971.47,569.07c0,5.67-3,8.85-8.49,8.9-5.75,0-8.61-2.76-8.7-8.57-.1-6.23,2.75-9.25,8.68-9.21C968.42,560.22,971.47,563.4,971.47,569.07Z" transform="translate(-486.94 -410.91)" fill="#fff"/><path d="M991.62,575a7.18,7.18,0,0,0,2.57-.43,8.57,8.57,0,0,0,1.94-1,8.33,8.33,0,0,0,1.7-1.42,13,13,0,0,1,1.09,1.25,2.6,2.6,0,0,1,.66,1.55c0,.48-.37,1-1.11,1.66a8.69,8.69,0,0,1-2.9,1.5,14.85,14.85,0,0,1-4.59.62,17.55,17.55,0,0,1-3.74-.46,9.87,9.87,0,0,1-3.84-1.84,10.87,10.87,0,0,1-3-3.85,14.65,14.65,0,0,1-1.24-6.55,13.33,13.33,0,0,1,1.29-6.23,11.3,11.3,0,0,1,3.16-3.85,11.6,11.6,0,0,1,4-2,14.65,14.65,0,0,1,3.69-.56,13.77,13.77,0,0,1,3.42.38,11.52,11.52,0,0,1,2.6.95,5.94,5.94,0,0,1,1.67,1.24,1.92,1.92,0,0,1,.59,1.25,2.84,2.84,0,0,1-.43,1.38,10.58,10.58,0,0,1-.85,1.33h-.58a10.55,10.55,0,0,0-2.34-1.92,7.29,7.29,0,0,0-3.87-.89,8,8,0,0,0-3.45.67,6.12,6.12,0,0,0-2.36,1.86,7.86,7.86,0,0,0-1.36,2.8,13.57,13.57,0,0,0-.42,3.44,14.45,14.45,0,0,0,.42,3.55,8.16,8.16,0,0,0,1.36,2.88,6.43,6.43,0,0,0,2.41,1.94A8.25,8.25,0,0,0,991.62,575Z" transform="translate(-486.94 -410.91)" fill="#fff"/><path d="M1027,565.88a18.26,18.26,0,0,1-.64,4.82,11.33,11.33,0,0,1-2,4.11,10,10,0,0,1-3.63,2.85,12.26,12.26,0,0,1-5.4,1.08,12.67,12.67,0,0,1-5.37-1,9.64,9.64,0,0,1-3.58-2.76,11.08,11.08,0,0,1-2-4.05,18.12,18.12,0,0,1-.64-4.87,15.82,15.82,0,0,1,.74-4.85,11.43,11.43,0,0,1,2.23-4,10.8,10.8,0,0,1,3.68-2.73,12.15,12.15,0,0,1,5.16-1,12.4,12.4,0,0,1,5.3,1,9.84,9.84,0,0,1,3.55,2.73,10.86,10.86,0,0,1,2,3.95A17.5,17.5,0,0,1,1027,565.88Zm-4.73,0a16.42,16.42,0,0,0-.29-3.13,8.58,8.58,0,0,0-1-2.81,5.71,5.71,0,0,0-2.07-2,6.9,6.9,0,0,0-3.46-.77,6.8,6.8,0,0,0-3.37.77,6,6,0,0,0-2.15,2,8.74,8.74,0,0,0-1.14,2.81,14.36,14.36,0,0,0-.34,3.13,17.77,17.77,0,0,0,.29,3.22,8.38,8.38,0,0,0,1.09,2.93,6.57,6.57,0,0,0,2.12,2.14,6.25,6.25,0,0,0,3.4.84,6.65,6.65,0,0,0,3.5-.84A6,6,0,0,0,1021,572a9.18,9.18,0,0,0,1-2.93A17.77,17.77,0,0,0,1022.3,565.88Z" transform="translate(-486.94 -410.91)" fill="#fff"/><path d="M1045.82,553.44a11.08,11.08,0,0,1,3.93.76,5.85,5.85,0,0,1,3,2.4,10.57,10.57,0,0,1,3.32-2.22,11.6,11.6,0,0,1,4.81-.94,8.38,8.38,0,0,1,5.36,1.53,6.72,6.72,0,0,1,2.44,3.82,11,11,0,0,1,.32,2.27c0,.84,0,1.64,0,2.43V578h-4.51V563.64q0-1,0-1.86a5.5,5.5,0,0,0-.29-1.66,3.44,3.44,0,0,0-1.51-2,6.65,6.65,0,0,0-3.48-.71,7.44,7.44,0,0,0-3.26.71,6.68,6.68,0,0,0-2.26,1.58c.07.58.12,1.18.16,1.81s0,1.29,0,2V578h-4.51V563.64a18.37,18.37,0,0,0-.11-2,7.72,7.72,0,0,0-.37-1.7q-.85-2.55-4.78-2.55a8.37,8.37,0,0,0-2.25.3,8.15,8.15,0,0,0-1.94.82,5.15,5.15,0,0,0-1.38,1.15,2,2,0,0,0-.53,1.25V578h-4.51V553.9h.32l.34,0,.35,0a3.74,3.74,0,0,1,2.25.63,2.85,2.85,0,0,1,1.09,2,10.46,10.46,0,0,1,3.24-2.12A11.51,11.51,0,0,1,1045.82,553.44Z" transform="translate(-486.94 -410.91)" fill="#fff"/></svg>