<svg id="Layer_1" data-name="Layer 1" xmlns="http://www.w3.org/2000/svg" viewBox="0 0 2019.548 460.246"><defs><style>.cls-1{fill:#fff;}</style></defs><polygon class="cls-1" points="1352.117 243.694 1352.117 4.753 1291.058 4.753 1223.023 103.648 1154.993 4.753 1093.93 4.753 1093.93 243.694 1163.288 243.694 1163.288 114.933 1223.023 197.9 1282.759 114.933 1282.759 243.694 1352.117 243.694"/><path class="cls-1" d="M1451.713-512.417s10.952-35.841,18.252-62.059h.662c7.3,26.218,18.255,62.059,18.255,62.059ZM1439.1-656.448l-94.581,238.941h73.01l14.6-41.479h76.325l14.6,41.479h73.007l-94.577-238.941Z" transform="translate(20.572 661.2)"/><path class="cls-1" d="M1702.461-546.935H1676.58v-51.1h25.881c14.937,0,26.551,6.638,26.551,25.556,0,19.58-11.614,25.547-26.551,25.547m59.406,41.155c24.223-13.609,37.169-37.17,37.169-66.7,0-56.421-42.145-83.967-101.885-83.967h-88.272v238.941h67.7v-74.335h19.876l4.314,11.618c67.249,152.585,222.38,110,238.312,103.366v-58.407c-9.961,2.653-145.931,42.286-177.215-70.514" transform="translate(20.572 661.2)"/><polygon class="cls-1" points="812.26 4.976 620.445 4.976 620.445 63.383 681.508 63.383 681.508 243.921 751.2 243.921 751.2 63.383 812.26 63.383 812.26 4.976"/><polygon class="cls-1" points="69.359 4.976 0 4.976 0 243.921 150.998 243.921 150.998 185.51 69.359 185.51 69.359 4.976"/><polygon class="cls-1" points="603.388 4.976 411.573 4.976 411.573 63.383 472.636 63.383 472.636 243.921 542.324 243.921 542.324 63.383 603.388 63.383 603.388 4.976"/><path class="cls-1" d="M361.336-536.753c0,56.42-42.343,97.373-100.688,97.373-57.215,0-100.36-41.861-100.36-97.373s43.145-97.37,100.36-97.37c57.4,0,100.688,41.858,100.688,97.37M260.648-661.2c-72.649,0-127.437,53.5-127.437,124.447S188-412.3,260.648-412.3c74.034,0,127.769-52.341,127.769-124.451,0-70.946-54.927-124.447-127.769-124.447" transform="translate(20.572 661.2)"/><path class="cls-1" d="M1023.818-536.752c0,56.42-42.347,97.369-100.688,97.369-57.214,0-100.359-41.857-100.359-97.369s43.145-97.374,100.359-97.374c57.4,0,100.688,41.862,100.688,97.374m27.078,0C1050.9-607.7,995.968-661.2,923.13-661.2c-72.649,0-127.437,53.5-127.437,124.447S850.481-412.306,923.13-412.306c74.031,0,127.766-52.336,127.766-124.446" transform="translate(20.572 661.2)"/><path class="cls-1" d="M1807.309-656.523v.074h-.21v58.411h.21v.321H1868.3v117.866l-.07-3.7V-444.4s37.107,3.438,70.991-11.08V-597.717h59.76v-58.806Z" transform="translate(20.572 661.2)"/><path class="cls-1" d="M683.918-244.68a109.227,109.227,0,0,1-12.527.682c-27.328,0-41.9-20.266-41.9-42.355,0-21.636,15.262-41.907,44.408-41.907a117.942,117.942,0,0,1,48.968,10.479v-43.273c-12.753-5.922-30.063-10.705-53.751-10.705-51.465,0-87.45,38.49-87.45,85.406,0,47.6,35.528,85.4,89.728,85.4,20.271,0,41.907-4.553,57.848-12.3v-69.461H683.918Z" transform="translate(20.572 661.2)"/><path class="cls-1" d="M816.688-269.5s7.518-24.593,12.527-42.585h.456C834.68-294.1,842.194-269.5,842.194-269.5Zm-8.653-98.837L743.13-204.37h50.1l10.022-28.467h52.382l10.018,28.467h50.1l-64.9-163.972Z" transform="translate(20.572 661.2)"/><polygon class="cls-1" points="1043.592 360.723 996.905 292.858 955.002 292.858 955.002 456.83 1002.597 456.83 1002.597 368.468 1043.592 425.402 1084.586 368.468 1084.586 456.83 1132.181 456.83 1132.181 292.858 1090.278 292.858 1043.592 360.723"/><polygon class="cls-1" points="1213.713 392.38 1267.003 392.38 1267.003 354.804 1213.713 354.804 1213.713 332.937 1275.886 332.937 1275.886 292.856 1166.114 292.856 1166.114 456.829 1279.304 456.829 1279.304 416.748 1213.713 416.748 1213.713 392.38"/><path class="cls-1" d="M1350.282-303.435c-16.627-6.835-26.649-10.931-26.649-16.858,0-6.6,8.2-10.474,21.636-10.474,15.262,0,30.52,3.874,40.538,10.474v-43.725c-11.384-4.778-28.241-7.744-44.638-7.744-38.942,0-64.222,20.728-64.222,51.469,0,31.433,18.679,42.364,45.094,52.613,17.536,6.831,28.241,10.018,28.241,16.853,0,5.918-7.744,8.427-22.092,8.427-14.119,0-32.338-4.557-47.6-12.984v45.547c12.749,5.466,31.654,8.883,50.1,8.883,42.816,0,66.048-18.675,66.048-49.873,0-30.52-20.045-41.681-46.46-52.608" transform="translate(20.572 661.2)"/></svg>