<svg id="Слой_1" data-name="Слой 1" xmlns="http://www.w3.org/2000/svg" viewBox="0 0 162.758 30.491"><defs><style>.cls-1{fill:#fff;}.cls-2{fill:#68bb53;}</style></defs><path class="cls-1" d="M67.325,32.773,66.671,25.4v-.044c.593-.121,1.979-.308,3.007-.4a24.306,24.306,0,0,1,2.517-.1,8.748,8.748,0,0,1,3.216.66,5.5,5.5,0,0,1,3.353,4.749,6.4,6.4,0,0,1-.495,3.155,5.822,5.822,0,0,1-2.089,2.419,8.418,8.418,0,0,1-1.962.863,13.1,13.1,0,0,1-2.474.483l.055.66.418,4.749v.044l-2.144.187-1.863.16v-.044L67.5,35.049Zm7.311-2.122a2.392,2.392,0,0,0-1.265-1.935,3.013,3.013,0,0,0-1.693-.308,3.748,3.748,0,0,0-.692.083l.44,5.178a5.3,5.3,0,0,0,.742-.083,3.583,3.583,0,0,0,1.572-.637,2.365,2.365,0,0,0,.742-.957,3,3,0,0,0,.165-1.319Z" transform="translate(-66.671 -12.489)"/><path class="cls-1" d="M82.612,39.2c-.44,1.363-.765,2.4-.819,2.567v.066l-2.117.187-2.242.175v-.065c.055-.165.439-1.2,2.891-8.246l3.644-10.444.6-.049,5.349,9.7c3.573,6.492,4.095,7.453,4.172,7.607v.066l-2.2.193-2.583.22V41.1c-.061-.159-.55-1.1-1.2-2.391Zm3.93-3.733v-.049a36.156,36.156,0,0,1-1.732-3.809h0a39.609,39.609,0,0,1-1.138,4.056v.05Z" transform="translate(-66.671 -12.489)"/><path class="cls-1" d="M109.3,30.2a8.823,8.823,0,0,1-3.413,8.075,11.128,11.128,0,0,1-5.97,2.072c-1.149.1-2.259.17-3,.22-.489,0-1.182.033-1.649.033h0l-.687-7.872-.2-2.275-.626-7.223v-.181c.456-.088,1.027-.2,2.083-.341s1.973-.237,2.825-.314a11.839,11.839,0,0,1,6.371.918,8.07,8.07,0,0,1,4.271,6.871Zm-4.4.473a4.946,4.946,0,0,0-2.051-3.848,5.26,5.26,0,0,0-3.353-.7c-.439.038-.879.121-1.171.17l.874,10.153c0,.044,0,.044.05.038a8.617,8.617,0,0,0,1.066,0,5.07,5.07,0,0,0,2.82-1.138,5.213,5.213,0,0,0,1.759-4.633Z" transform="translate(-66.671 -12.489)"/><path class="cls-1" d="M125.976,28.755a8.832,8.832,0,0,1-3.414,8.08,10.973,10.973,0,0,1-5.969,2.061c-1.149.1-2.259.171-3,.22-.489,0-1.182.033-1.649,0h0l-.66-7.849L111.063,29l-.621-7.2V21.62c.456-.083,1.028-.2,2.083-.341s1.979-.236,2.831-.313a11.946,11.946,0,0,1,6.371.918A8.025,8.025,0,0,1,126,28.744Zm-4.4.473a4.948,4.948,0,0,0-2.05-3.848,5.259,5.259,0,0,0-3.353-.693c-.44.033-.879.121-1.171.165l.88,10.142c0,.044,0,.044.049.038a8.633,8.633,0,0,0,1.067,0,5.067,5.067,0,0,0,2.819-1.138,5.23,5.23,0,0,0,1.759-4.639Z" transform="translate(-66.671 -12.489)"/><path class="cls-1" d="M135.6,29.623l.044.517.6,6.953v.044l-2.072.182-2.2.187v-.072l-.582-6.854-.033-.369L129.4,27.43c-4.172-5.931-4.832-6.843-4.991-7.08V20.3l2.649-.22,2.139-.182v.044c.131.193.8,1.144,1.775,2.573.8,1.165,1.649,2.353,2.138,3.249h.044c.358-.973.929-2.161,1.561-3.474.8-1.65,1.336-2.8,1.413-2.941v-.044l2.512-.22,2.028-.176v.071c-.093.237-.549,1.215-3.715,7.806Z" transform="translate(-66.671 -12.489)"/><path class="cls-1" d="M142.082,26.336l-.655-7.382V18.91c.594-.121,1.979-.308,3.007-.4a24.433,24.433,0,0,1,2.523-.1,8.691,8.691,0,0,1,3.21.659,5.5,5.5,0,0,1,3.353,4.75,6.4,6.4,0,0,1-.494,3.155,5.735,5.735,0,0,1-2.084,2.418,7.821,7.821,0,0,1-1.945.88,12.917,12.917,0,0,1-2.463.484l.055.659.445,4.733v.044l-2.166.181L143,36.538v-.044l-.682-7.91Zm7.31-2.127a2.406,2.406,0,0,0-1.209-1.935,3.081,3.081,0,0,0-1.7-.313,4.824,4.824,0,0,0-.687.082l.44,5.178a5.539,5.539,0,0,0,.737-.082,3.54,3.54,0,0,0,1.566-.638,2.323,2.323,0,0,0,.715-.956,2.922,2.922,0,0,0,.165-1.32Z" transform="translate(-66.671 -12.489)"/><path class="cls-1" d="M173.892,24.88a9.471,9.471,0,0,1-18.854,1.742c-.44-5.112,3.336-9.471,8.794-9.933s9.587,3.073,10.027,8.169Zm-4.348.439a5.107,5.107,0,0,0-10.2.576h0a1.83,1.83,0,0,0,.033.347,5.062,5.062,0,0,0,5.282,4.831h0l.325-.027c3.067-.264,4.8-2.748,4.546-5.711Z" transform="translate(-66.671 -12.489)"/><path class="cls-1" d="M192.1,32.68l-.549.049c-5.052-7.9-5.651-8.993-6.151-10.07h0c-.319,1.171-.726,2.352-4.4,10.993l-.549.05L176,23.033c-2.336-5.728-2.688-6.674-2.8-6.882v-.044l2.309-.2,2.055-.176v.044c.088.248.55,1.127,2.139,5.178.439,1.1.78,2.062,1.1,2.947h.066c.33-.984.786-2.2,1.27-3.337,1.1-2.633,1.973-4.4,2.391-5.31l.605-.049c.549.819,1.61,2.286,3.419,4.947.478.714,1.181,1.935,1.682,2.875h.115c.143-1.017.253-1.649.456-2.749a54.879,54.879,0,0,1,1.248-5.711V14.5l1.957-.165,2.05-.176h0c-.044.3-.242,1.209-1.533,7.228Z" transform="translate(-66.671 -12.489)"/><path class="cls-1" d="M197.654,21.554l-.6-7.448v-.05l5-.445,4.54-.39.308,3.512h-.061l-2.748.242-2.463.22.3,3.474,2.666-.22,1.962-.165h.044l.148,1.7.154,1.82h-.066l-1.912.165-2.716.241.275,3.205.038.451,3.639-.314,1.759-.148h.017l.308,3.546-4.4.373-5.326.462v-.038l-.671-7.921Z" transform="translate(-66.671 -12.489)"/><path class="cls-1" d="M209.692,20.515l-.621-7.388v-.066c.39-.077,1.028-.181,1.649-.252.517-.066,1.616-.187,2.232-.242a14.062,14.062,0,0,1,3.694.1,4.763,4.763,0,0,1,4.1,4.661,5.2,5.2,0,0,1-1.319,4.073,5.057,5.057,0,0,1-1.127.924v.082c.181.22.549.66,4.359,5.326.549.66,1.346,1.622,1.473,1.8h0l-2.369.2-1.7.149-.715.06c-1.467-1.935-3.2-4.232-4.87-6.448l-.418.033.1,1.1.489,5.667v.049l-2,.171-2.029.176v-.039l-.681-7.91Zm6.926-2.506a2.05,2.05,0,0,0-2.056-2.045h0A2,2,0,0,0,214.2,16a6.578,6.578,0,0,0-.8.115l.39,4.519a4.7,4.7,0,0,0,.6,0,2.605,2.605,0,0,0,1.479-.589,2.284,2.284,0,0,0,.758-2.033Z" transform="translate(-66.671 -12.489)"/><path class="cls-2" d="M226.732,24.814a2.457,2.457,0,0,1,2.694,2.2v0h0a2.42,2.42,0,0,1-2.248,2.54h0a2.442,2.442,0,0,1-2.749-2.088h0v-.044a2.506,2.506,0,0,1,2.331-2.638Z" transform="translate(-66.671 -12.489)"/></svg>