<svg xmlns="http://www.w3.org/2000/svg" viewBox="0 0 466.02 163.19"><defs><style>.cls-1{fill:#fff;}.cls-2{fill:#cfb151;}.cls-3{fill:#ceb151;}.cls-4{fill:#d2b65b;}</style></defs><title>regal_wings</title><g id="Layer_2" data-name="Layer 2"><g id="Layer_1-2" data-name="Layer 1"><g id="regal_wings"><path class="cls-1" d="M146.48,114.44c-2,2.91-3.72,6-6.39,8.44-3.54,3.19-6.64,3.26-10.33.24-3-2.44-4-5.06-4.26-11.18-3.12,3.89-5.94,7.48-9.42,10.46-5.42,4.65-11.32,5.06-17.56,2.11-5.11-2.42-8.09-6.47-7.66-12.28a70.72,70.72,0,0,1,15.3-39.92,15,15,0,0,1,14.55-5.79c6.15.87,9.78,5,9.73,11.21a17.57,17.57,0,0,1-.45,3.82,48.19,48.19,0,0,1-11.92,22.3c-4.36,4.63-9.52,7.63-16.19,6.75a8.8,8.8,0,0,0-.27,5.35c.81,4,3.59,5.41,7.5,4a21.34,21.34,0,0,0,7.37-4.51c6.2-5.72,11.56-12,14.33-20.24a93.81,93.81,0,0,1,8.32-18.42A29.68,29.68,0,0,1,145,69.21c5.06-4.38,10.91-3.4,14.21,2.39.62,1.1,1,2.32,1.7,3.86.74-1.83,1.33-3.27,1.91-4.72,1.33-3.27,2.43-3.82,5.84-2.94,3,.77,4.12,2.2,3.56,5.28a62.14,62.14,0,0,1-2.47,8.82c-4.17,12.16-8.42,24.29-12.63,36.44a5,5,0,0,0-.31,2.36,4.33,4.33,0,0,0,1.29-1c6.51-6.78,11.76-14.36,14.94-23.3a113.42,113.42,0,0,1,8.8-19.73,28.34,28.34,0,0,1,5.93-7.54c5.09-4.3,10.91-3.26,14.16,2.54.6,1.08,1,2.26,1.54,3.47a11.1,11.1,0,0,0,2.2-4.91c.79-3.23,3-2.87,5.25-2.51,2.46.4,4.31,1.66,4.14,4.43A25.06,25.06,0,0,1,214,77.32c-3.45,12.22-8.5,23.84-13.2,35.6-.83,2.08-1.53,4.21-2.29,6.32-.28.53-.6,1.13.08,1.51.19.1.69-.36,1.05-.56a22.24,22.24,0,0,0,6-6.25c5.52-7.73,10.41-15.7,13.2-25A190.76,190.76,0,0,1,236,49.16a77.34,77.34,0,0,1,9.63-13.84,20.91,20.91,0,0,1,5.93-4.9c5.08-2.61,9.68.26,9.25,5.95a46.93,46.93,0,0,1-1.53,8.54,120.58,120.58,0,0,1-17.4,38c-3.49,5.06-7.37,9.81-13.13,12.52A2.58,2.58,0,0,0,227.09,97c-2.15,7.24-4.75,14.41-3.65,22.19a7.16,7.16,0,0,0,.6,1.34c6.23-2.62,8.68-8.84,12.5-13.52,1.71,1,1.27,2.16.9,3.21a28,28,0,0,1-10.82,14.43,9,9,0,0,1-13.85-7c-.18-2.07,0-4.17,0-6.3-1.73-.1-1.87,1.49-2.51,2.42-2.55,3.74-5.09,7.47-8.66,10.33-3.21,2.56-5.33,2.84-7.93,1.28-2.94-1.78-4-4.46-3.41-8.25.17-1,1-2.33-.11-3.14-.74-.53-1.46,1.21-2.35,2.89-1.33,1.81-2.44,3.8-3.87,5.53-2.1,2.53-4.43,4.86-8.23,3.54s-6.71-5.31-7-7.9c-.17-1.42.54-3.78-.4-4.25-1.23-.62-2,2-2.87,3-2.53,3.15-5,6.46-8.43,8.59-3,1.83-4.39,4.39-5.51,7.49-1.64,4.52-3.46,9-5.41,13.39a34.23,34.23,0,0,1-10.73,14A15,15,0,0,1,115,157.63c-4.76-6.09-3.51-14.54,3-19.72,3.59-2.88,7.83-4.41,12.22-5.51,3.13-.78,6.27-1.51,9.43-2.11a4.63,4.63,0,0,0,4-3.57c1.17-3.84,2.63-7.59,4-11.38a5.13,5.13,0,0,0,.29-2.16A5.55,5.55,0,0,0,146.48,114.44Zm83.82-24.6c2.95-2.37,4.73-5.65,6.56-8.82a239.79,239.79,0,0,0,19.06-42.6c.5-1.44,1.3-2.92.91-5-3.61,2.5-5.45,6-7.4,9.43-8.46,14.68-14.55,30.4-20,46.39a10.88,10.88,0,0,0-.12,1.2A2.65,2.65,0,0,0,230.3,89.84Zm-29.45-9.68c-.11-.9-.17-1.54-.28-2.17-.31-1.8-.83-3.61-2.79-4.13-2.2-.59-3,1.38-4,2.75a15,15,0,0,0-1.43,2.5c-5.45,11.25-9,22.62-13.19,35-.82,1.9-2.12,4.51-.36,5.4,2.42,1.06,3.62-2.1,4.84-3.83A142.89,142.89,0,0,0,199.56,85,43.28,43.28,0,0,0,200.85,80.16Zm-65.34,39.09c.47.26,1.51-.48,1.82-.78a38.93,38.93,0,0,0,3.34-3.46c7.65-9.28,12.36-20.15,16.66-31.22a11.33,11.33,0,0,0,.38-6.66,4,4,0,0,0-2.55-3.25c-1.7-.56-2.68.72-3.5,1.91a30,30,0,0,0-2.47,4.11,230.16,230.16,0,0,0-10.89,26.65C137,110.49,133.24,118,135.51,119.25ZM102.4,106.34c2.2.37,3.49-.71,4.6-1.72,9.07-8.28,13.51-18.93,15.59-30.76a1.93,1.93,0,0,0,0-.48c0-.82,0-1.67-.86-2.1s-1.54,0-2.14.57a15.14,15.14,0,0,0-2.06,2C110.12,83.56,105.67,94.59,102.4,106.34Zm38.45,27.59c-5.58,2.09-10.4,3.48-14.37,6.6-5.32,4.19-5.11,12.34.3,15.64,3,1.84,4.06,1.65,5.67-1.49A159,159,0,0,0,140.85,133.93Z"/><path class="cls-1" d="M388.87,35a3.6,3.6,0,0,1-2.76.36c-5.16-.71-9.06,1.5-12.24,5.33-3.75,4.53-6.07,9.84-8.18,15.24-5.31,13.65-8.82,27.9-13.55,41.75-3.43,10-6.92,20.05-11.67,29.57a55.78,55.78,0,0,1-7.8,12.15c-2.59,3-5.6,5.37-9.53,6.27-4.72,1.09-7.85-.44-9.69-4.94a76.27,76.27,0,0,1-2.22-7.46c-1.36,1.38-2.57,2.64-3.81,3.87a33.84,33.84,0,0,1-9.64,7.19c-7.74,3.54-13.34.77-15-7.6a28.63,28.63,0,0,1,.23-12c2.08-9.29,5.52-18.13,8.82-27C296.58,84.76,302,72,306,58.77c.83-2.78,1.54-5.59,2.19-8.41a28.07,28.07,0,0,0,.37-9.63c-.65-5.51-2.5-6.71-7.6-4.93a31.17,31.17,0,0,0-13.62,9.72c-10.45,12.51-16,27-17.25,43.21-.3,3.88.06,7.79,2.07,11.26,1.56,2.7,2.79,2.69,4.39-.08,3.94-6.83,4.79-14.26,3.9-22-.16-1.35-1.19-2.76.71-3.74a4.69,4.69,0,0,1,4.6-.26,7,7,0,0,1,3.58,4.88c2.15,8.22-2.7,21-9.83,25.77-8,5.37-16.76,2.27-19.43-7-1.83-6.36-1.06-12.8.07-19.17C262.68,64,268.23,51,278.27,40.17c5.15-5.55,11.19-9.71,18.94-10.76A19.6,19.6,0,0,1,319.54,50.9c-.72,7.28-3.24,14.1-5.58,20.95-5.41,15.81-12.21,31.12-17.31,47.05-1.18,3.67-2.23,7.39-3.12,11.15-.79,3.29-2,8.11-.07,10,1,1,3.44-.62,4.89-1.5,4.61-2.8,8.23-6.68,11.74-10.71,1.2-1.38,1.14-2.89,1.22-4.5a182.22,182.22,0,0,1,15.56-64.9,56.17,56.17,0,0,1,6.49-11.27,17.89,17.89,0,0,1,4.41-4.44c4.18-2.72,8.86-1.13,10.48,3.59a11.41,11.41,0,0,1,.36,5.72c-1.31,7.82-3.94,15.25-6.75,22.62-5.51,14.42-11.63,28.57-19.46,41.93a6.74,6.74,0,0,0-1.13,2.61c-.46,5.94-1.07,11.82-.24,17.84.2,1.45.12,3.65,1.86,3.93,2.67.44,7.42-8,9.85-12.89,4.43-9,7-18.63,9.7-28.24,4.3-15.5,8-31.18,13.53-46.31,2.22-6,4.65-12,8.68-17.14,4.94-6.26,12.24-8.42,19.43-5.85C386.23,31.32,388.21,32.29,388.87,35Zm-64.93,71.63c1.17-2.61,2.38-5.2,3.5-7.83,6.11-14.36,11.9-28.83,15.46-44.07.63-2.71,1.49-5.52.06-9.52C331.79,64.88,327.82,85.69,323.94,106.66Z"/><path class="cls-1" d="M78.22,53.12c-2.64,3.29-3.94,7.23-5.21,11.17q-6,18.6-12,37.2c-.37,1.16-1.08,2.4.38,3.44s2.4-.08,3.35-.85a47.25,47.25,0,0,0,9.75-11.3,104.21,104.21,0,0,0,15.88-41.1c.66-4.3,1-8.67-.23-13-1.25-4.48-2.18-5-6.53-3.72a37.56,37.56,0,0,0-11.52,6c-5.48,4-10.86,8.08-16.25,12.17a116.26,116.26,0,0,1-14.79,10,33.14,33.14,0,0,1-11.34,4c-8.69,1.18-15.13-5.1-14.3-13.86a7.76,7.76,0,0,1,1.42-4c1.28-1.7,2.33-1.59,3.43.3,3.1,5.29,6.07,6.54,12.06,4.91a57.87,57.87,0,0,0,14-6.46c6.79-4,13.5-8.16,20.29-12.18a58.67,58.67,0,0,1,12.24-5.68C92.25,25.93,103,34,102.82,48.06a45.51,45.51,0,0,1-1.52,10.51A100.2,100.2,0,0,1,86.76,91c-5.19,7.51-11.39,14-20.41,17.62C72.26,113.82,73,120.67,73,127.7c0,4-.33,8.06.67,12,1.92.55,3-1,4.35-1.67,1.87-.94,2.26.18,2.36,1.69a1.59,1.59,0,0,1-.07.48c-.54,3-5,6-9.43,6.46-3.71.37-6.42-1.09-7.78-4.39a17.68,17.68,0,0,1-1.3-7.09c.11-4.51.21-9,.4-13.53a42,42,0,0,0-.47-9.17c-.22-1.27-.5-2.57-2.21-2.69-1.51-.12-1.83,1.07-2.28,2.06-.53,1.17-.91,2.41-1.42,3.59-3.09,7.09-6.48,14-11.56,20-5.73,6.68-12.71,10.8-21.82,10.56-9.32-.25-16.28-5-19.75-13.68A36.37,36.37,0,0,1,.9,110.49C3,101.05,6.39,92.31,13.5,85.43c4.69-4.54,10.21-7.27,16.85-7.34,5.94-.06,10.13,3,12,8.64,3.42,10.45-2.21,27.65-11.15,34a13.91,13.91,0,0,1-10,2.93,3.47,3.47,0,0,1-2.86-1.59c-.68-1.32.7-2,1.44-2.72A54.72,54.72,0,0,0,34.21,92a16.39,16.39,0,0,0,.06-7.66c-.75-2.75-1.65-3.17-4.16-2a18.81,18.81,0,0,0-6.52,4.93C13.42,99.62,10,113.69,13.4,129.3a18.24,18.24,0,0,0,7.69,11.32,3.61,3.61,0,0,0,4.77,0A43.11,43.11,0,0,0,36.7,129c6.43-9.75,10.46-20.61,14.38-31.5s7.77-22.14,11.7-33.2c1.41-4,3.17-7.78,6.39-10.66S74.66,50.7,78.22,53.12Z"/><path class="cls-1" d="M465.56,57.08c-1.4-3.25-3.07-6.26-6.89-6.7-3.64-.42-5.94,2.07-7.74,4.87a47,47,0,0,0-3.25,5.9q-2.42,5.25-4.58,10.61a166,166,0,0,1-25.24,43.12c-1.57,1.93-3.06,4-5.69,5.17-.58-2.78.55-5,1.54-7.1,3.44-7.42,7.1-14.76,10.59-22.16,2.26-4.8,4.56-9.6,5.73-14.81.85-3.77-.67-6.67-4.16-8.24-4.08-1.83-7.81-1.37-11.15,1.75-4.28,4-7.27,9-10.4,13.87-.79,1.25-1.7,4.22-3,3.56-1-.48.15-2.55.49-3.7.7-2.31,1.61-4.55,2.21-6.88,1.57-6-.8-9.06-7-8.93-2.09,0-4.18.27-6.27.45-1.24.11-2.82-.1-2.75,1.84s1.42,2.26,3,2.49,3.08-.83,4.55.27C391,85.61,385.35,98,377.38,109.21c-2.7,3.81-5.43,7.62-9.35,10.33-.46.25-.82.59-1,.41s-.12-.73.06-1.66a37.59,37.59,0,0,1,2.07-6.36c3.82-9.54,7.72-19,11.51-28.58a31,31,0,0,0,2.43-8.8c.33-4-1.62-6.53-5.57-7-3.38-.43-6.75.2-10.12.43-.85.06-1.57.39-1.63,1.4a1.83,1.83,0,0,0,1.71,2c1.88.39,3.73-.23,5.48-.54.89,1.16.11,2-.18,2.84-2.63,7.94-6.4,15.41-9.58,23.12-2.63,6.39-5.31,12.75-6.77,19.55-.76,3.52,0,6.37,3.07,8.42,3.4,2.28,6.44,2.23,9.84-.21a33.82,33.82,0,0,0,5.14-5.08c1.55-1.71,3.55-6,4.48-5.42a.64.64,0,0,1,.32.71,42.11,42.11,0,0,1-.86,4.71c-.6,3.75.67,5.43,4.37,5.92,2.87.38,4.22-.94,5.34-3.58A218.83,218.83,0,0,1,412,78.94c1.88-2.59,3.65-5.32,6.49-7,.54-.38.84-.55,1.08-.38s.19.63,0,1.22c-.82,3.48-2.58,6.57-4.11,9.74-3.22,6.65-6.59,13.23-9.67,20a81.22,81.22,0,0,0-4,10.83c-1.48,5.06-.11,9.21,3.45,11.67,4,2.76,7.66,1.12,11.27-.92,2.55-1.44,4.43-3.7,6.84-5.74,1.52,3.54,3.75,6.12,7.38,7.31,7.48,2.46,14.3-.52,17.95-8.11,3.55-7.4,3.63-15.28,2.61-23.19A134.67,134.67,0,0,0,448.7,79c-1.47-5.8.83-9.61,5.36-12.73a55.79,55.79,0,0,1,10.14-5.55C466.18,59.92,466.38,59,465.56,57.08Zm-30,64.37c-3.3-2.32-4.83-5.17-6.69-7.75-.94-1.3-.4-2.32.36-3.49a167.73,167.73,0,0,0,12.51-23.83C442.3,98.44,441.47,110.2,435.54,121.45Z"/><path class="cls-2" d="M138.77,38.55C139,27.25,150.54,24.3,158.6,27.4c6.44,2.47,9.88,7.58,10.58,14.3a26.64,26.64,0,0,1-.68,11c-.54,1.7-1.28,2.32-3,2.31q-21.48-.06-43,0c-1.85,0-2.74-.76-2.46-2.61.74-4.91,2.48-9.34,6.64-12.38C130.26,37.4,134.17,36.33,138.77,38.55Z"/><path class="cls-1" d="M420,161.14a11,11,0,0,1-5.28-.13c0-3.78.06-7.63,0-11.48-.05-2,.3-4.47-2.72-4.77-2.36-.24-3.8,1.52-4,4.94-.15,3.05-.19,6.12,0,9.17.12,2.3-1,2.59-2.91,2.64s-2.8-.53-2.75-2.69c.14-5.78.05-11.56.05-17.77,1.86.14,3.69-1.3,5,1,.73,1.29,1.32.19,1.79-.14,3.8-2.63,7.22-2,10.32,1.16,1.61-.59,2.6-2,4.22-2.43,4.43-1.28,8.4,1.05,8.65,5.64.27,4.93.06,9.89.06,15.14-1,0-1.57,0-2.17,0-3.31.07-3.57-.39-3.36-3.13.24-3.2.09-6.44,0-9.66-.05-1.77-.05-3.79-2.54-3.92-2.34-.12-3.44,1.39-3.84,3.53C419.77,152.43,420.52,156.63,420,161.14Z"/><path class="cls-1" d="M398.64,151.28A10.52,10.52,0,0,1,388,162c-6.36-.06-10.77-4.74-10.58-11.22a10.42,10.42,0,0,1,10.85-10.5C394.34,140.44,398.71,145.08,398.64,151.28Zm-15.54.05c.06,3.74,2.25,6.29,5.24,6.09s4.76-2.84,4.61-6.67c-.13-3.52-2.14-5.91-4.94-5.88S383,147.6,383.1,151.33Z"/><path class="cls-1" d="M374.52,146.82c-2.24.6-4.44,2.31-6.16-.89a1.07,1.07,0,0,0-.33-.34,4,4,0,0,0-5.57.81c-1.68,2.18-1.31,8.25.62,10,1.7,1.51,4.42,1.64,5.45-.39,1.83-3.62,3.92-2.07,6.26-1.21-1.83,5.59-5.16,7.84-10.41,7.19s-8.51-4.41-8.65-10.36c-.14-6.11,2.59-10,7.81-11.06S372.34,141.44,374.52,146.82Z"/><path class="cls-1" d="M387.47,42.81c1.08.09,1.89.11,2.67.24,4.43.7,5.75,3.31,3.3,7.12-3.36,5.23-8.72,8.38-13.42,12.2-1,.82-1.8,0-2-1.06a5.27,5.27,0,0,1,.94-3.61A54.6,54.6,0,0,0,384,45.32C384.54,43.12,385.66,42.4,387.47,42.81Z"/><path class="cls-3" d="M201.12,40.36c-.46.1-1.17,0-1.35.33-3.49,5.47-8.47,5.05-13.59,3.31-5.74-2-9.53-5.8-10.29-12.07-.74-6.07,1.08-11.37,4.85-16.13,5.31-6.71,13-10.37,19.57-15.47a1.36,1.36,0,0,1,1.75,0c7,4.73,15,8.26,20.21,15.33,4,5.47,6.33,11.52,4.1,18.49-2.39,7.46-8.2,11.43-16,11.26-3.61-.08-5.87-2.23-8.35-4.24A1,1,0,0,0,201.12,40.36Z"/><path class="cls-4" d="M201.12,40.36a1,1,0,0,1,.92.79c.2,1.9.25,3.78.64,5.7.73,3.55,2.29,5.89,6.06,6.38.44.06.87.4.73,1.38-5.46,1.09-11.11-.44-16.78,1.18.18-1,.18-1.51.29-1.53,5.33-1.09,7.31-4.67,7.22-9.74A10.18,10.18,0,0,1,201.12,40.36Z"/></g></g></g></svg>