<svg id="Layer_1" data-name="Layer 1" xmlns="http://www.w3.org/2000/svg" xmlns:xlink="http://www.w3.org/1999/xlink" viewBox="0 0 385.62 86.48"><defs><style>.cls-1{fill:url(#Безымянный_градиент_18);}.cls-2{fill:url(#Безымянный_градиент_9);}.cls-3{fill:url(#Безымянный_градиент_18-2);}.cls-4{fill:url(#Безымянный_градиент_18-3);}.cls-5{fill:url(#Безымянный_градиент_18-4);}.cls-6{fill:url(#Безымянный_градиент_9-2);}.cls-7{fill:url(#Безымянный_градиент_9-3);}.cls-8{fill:url(#Безымянный_градиент_9-4);}.cls-9{fill:url(#Безымянный_градиент_9-5);}.cls-10{fill:url(#Безымянный_градиент_18-5);}.cls-11{fill:url(#Безымянный_градиент_18-6);}.cls-12{fill:none;}.cls-13{fill:#fff;}</style><linearGradient id="Безымянный_градиент_18" x1="262.12" y1="0.02" x2="262.12" y2="86.48" gradientUnits="userSpaceOnUse"><stop offset="0" stop-color="#ca152e"/><stop offset="0.3" stop-color="#c6152d"/><stop offset="0.58" stop-color="#bb142b"/><stop offset="0.85" stop-color="#a91328"/><stop offset="1" stop-color="#9b1225"/></linearGradient><linearGradient id="Безымянный_градиент_9" x1="362.43" y1="-324.27" x2="362.43" y2="-279.21" gradientUnits="userSpaceOnUse"><stop offset="0.02" stop-color="#d0273b"/><stop offset="1" stop-color="#d35462"/></linearGradient><linearGradient id="Безымянный_градиент_18-2" x1="362.43" y1="-290.86" x2="362.43" y2="-237.81" xlink:href="#Безымянный_градиент_18"/><linearGradient id="Безымянный_градиент_18-3" x1="120.29" y1="-282.85" x2="120.29" y2="-258.43" xlink:href="#Безымянный_градиент_18"/><linearGradient id="Безымянный_градиент_18-4" x1="148.88" y1="-282.43" x2="148.88" y2="-258.38" xlink:href="#Безымянный_градиент_18"/><linearGradient id="Безымянный_градиент_9-2" x1="119.63" y1="-304.08" x2="119.63" y2="-273.55" xlink:href="#Безымянный_градиент_9"/><linearGradient id="Безымянный_градиент_9-3" x1="148.88" y1="-320.74" x2="148.88" y2="-277.03" xlink:href="#Безымянный_градиент_9"/><linearGradient id="Безымянный_градиент_9-4" x1="178.52" y1="-304.16" x2="178.52" y2="-278.95" xlink:href="#Безымянный_градиент_9"/><linearGradient id="Безымянный_градиент_9-5" x1="214.51" y1="-303.84" x2="214.51" y2="-280.42" xlink:href="#Безымянный_градиент_9"/><linearGradient id="Безымянный_градиент_18-5" x1="201.34" y1="-283.63" x2="201.34" y2="-243.03" xlink:href="#Безымянный_градиент_18"/><linearGradient id="Безымянный_градиент_18-6" x1="170.46" y1="-280.81" x2="170.46" y2="-258.29" xlink:href="#Безымянный_градиент_18"/></defs><rect class="cls-1" x="138.61" y="0.02" width="247.01" height="86.46" rx="6.41"/><path class="cls-2" d="M485.94-317.86v28.37l-2.91.09-.66,0-240.85,7.74-2.59,2.43v-38.65a6.41,6.41,0,0,1,6.41-6.41H479.53A6.41,6.41,0,0,1,485.94-317.86Z" transform="translate(-100.32 324.27)"/><path class="cls-3" d="M485.94-290.86v46.64a6.41,6.41,0,0,1-6.41,6.41H245.34a6.41,6.41,0,0,1-6.41-6.41v-35.37c0-1,1.11-2,2.59-2.05l240.85-7.74.66,0C484.54-289.5,485.83-289.89,485.94-290.86Z" transform="translate(-100.32 324.27)"/><path class="cls-4" d="M117.79-279.33l13.52.06c3.8.45,6,1.55,7.63,5.72,0,0,.11.79.11.79.4,3.78-1.21,9.11-7.56,12.09a22.61,22.61,0,0,1-7.9,2A110,110,0,0,1,104-259.2l-2.13-.21a10.07,10.07,0,0,1-.33-3.54,8.09,8.09,0,0,1,1.8-5.12,6.3,6.3,0,0,1,5.23-1.9c2.74.09,5.47.3,8.2.43a30.62,30.62,0,0,0,6.9-.07,5.36,5.36,0,0,0,2-.72,2.39,2.39,0,0,0-.2-4.1,13.89,13.89,0,0,0-4.12-1.46c-2.94-.58-5.49-1.14-10.28-1.81-.15,0-1.38-.35-2.67-.71a9,9,0,0,1-4.9-3.45l-.7-1Z" transform="translate(-100.32 324.27)"/><path class="cls-5" d="M154.94-282.43V-265a13.42,13.42,0,0,1-.09,1.79,4.53,4.53,0,0,1-3.3,4,20.5,20.5,0,0,1-8.63.61,1.54,1.54,0,0,1-.11-.85v-19.06Z" transform="translate(-100.32 324.27)"/><path class="cls-6" d="M112.19-278.42c2.54,0,3.49,0,5.34-.06,5.42-.21,11.1-.41,14.72,0,3.8.45,5.24,1.6,6.69,4.92,0,0-.19-1.3-.19-1.3,0-.18-.07-.39-.12-.61a6.3,6.3,0,0,0-.17-.69c-.07-.24-.14-.49-.22-.73,0-.08-.05-.15-.07-.23a16.19,16.19,0,0,0-.94-2.4,14.8,14.8,0,0,0-8.4-5.66c-3.73-1.12-7.61-1.54-11.41-2.32a15,15,0,0,1-3.91-1.05c-1.84-.94-2-2.45-.22-3.57a5.46,5.46,0,0,1,1.88-.73,33.16,33.16,0,0,1,7.9-.2c2.28.08,4.55.38,6.84.33,2.08-.05,4-.66,5.11-2.54,1.49-2.44,1.41-5.09,1-7.76a113.05,113.05,0,0,0-17.84-1,30.92,30.92,0,0,0-8,1.26c-4.06,1.38-7.25,3.77-9,7.85a13.49,13.49,0,0,0-.68,2.41,11.48,11.48,0,0,0-.24,2.81c0,.42.06.87.12,1.37a10.63,10.63,0,0,0,1.37,4.06,10.74,10.74,0,0,0,3.28,3.7h0c.26.17.51.34.78.49l.05,0a13,13,0,0,0,2.12.85,13.75,13.75,0,0,0,2.2.6A14.59,14.59,0,0,0,112.19-278.42Z" transform="translate(-100.32 324.27)"/><path class="cls-7" d="M154.94-320.38v39.56c0,4.6-12.14-.28-12.13,3.79V-312.2a11.75,11.75,0,0,1,.5-3.91c.93-2.65,3-3.87,5.6-4.36a16.46,16.46,0,0,1,5.73,0A1.24,1.24,0,0,1,154.94-320.38Z" transform="translate(-100.32 324.27)"/><path class="cls-8" d="M201.5-280.35l-13.47.43q-3.75-5.85-7.47-11.69c-.13-.21-.27-.39-.43-.63l-10.24,10.85,1.34,2-13.5.43h0l-2.08-3.28s0-.12-.1-.21l5.73-6.26,9.36-10.21a14.77,14.77,0,0,1,7.5-4.82,19,19,0,0,1,8.77.2,1.1,1.1,0,0,1,.72.62l12.77,20.78Z" transform="translate(-100.32 324.27)"/><path class="cls-9" d="M225.5-302.63c-.74,1.63-1.46,3.24-2.18,4.85l-7.61,17-12.19.39,1.61-3.79c1.88-4.41,3.73-8.82,5.63-13.22a10.53,10.53,0,0,1,4.05-5c2.67-1.65,5.55-1.61,8.49-1A7.06,7.06,0,0,1,225.5-302.63Z" transform="translate(-100.32 324.27)"/><path class="cls-10" d="M217-283.63c-1.9,4.22-5.05,11.25-6.94,15.47-.1.2-.21.38-.31.56q-4.2,9.42-8.4,18.82c-1,2.17-2.25,4.09-4.54,5.06a11.77,11.77,0,0,1-5.88.58,12.7,12.7,0,0,1-3.48-.82,1.16,1.16,0,0,1-.65-.38c.93-2,1.88-4,2.84-6q3.54-7.49,7.1-15a.88.88,0,0,0-.09-1.09,7.11,7.11,0,0,1-.59-1.05c-1.74-2.7-3.48-5.39-5.21-8.1-.93-1.46-4.19-6.55-5.11-8,3.26,3.91,13.91.18,15.79,3.21l1.18,1.92c.29-.68.57-1.34.84-2C204.77-283.37,215.22-279.73,217-283.63Z" transform="translate(-100.32 324.27)"/><path class="cls-11" d="M171.23-279.38l13.14,19.78a14.41,14.41,0,0,1-4.82,1.2,14.22,14.22,0,0,1-7.35-.88,10.22,10.22,0,0,1-4.46-4c-3.35-5.23-7.87-12.33-11.2-17.58C157.78-278.86,169.42-282,171.23-279.38Z" transform="translate(-100.32 324.27)"/><line class="cls-12" x1="42.5" y1="45.8" x2="37.35" y2="45.97"/><line class="cls-12" x1="103.2" y1="43.85" x2="101.18" y2="43.92"/><line class="cls-12" x1="87.71" y1="44.35" x2="70.91" y2="44.89"/><line class="cls-12" x1="57.4" y1="45.32" x2="54.63" y2="45.41"/><line class="cls-12" x1="11.6" y1="46.8" x2="10.52" y2="46.83"/><path class="cls-13" d="M383.64-301.65a16,16,0,0,0-4-.16,2.53,2.53,0,0,0-2.5,2.8v3.12l-.12-.15a17.64,17.64,0,0,0-12.69-6.23h-2.48a18.41,18.41,0,0,0-14.79,9,22.21,22.21,0,0,0-2.9,14.89c1.42,11.41,11.16,18.87,22,17.14a16.74,16.74,0,0,0,10.7-5.75c.05-.08.11-.16.23-.08,0,1.06,0,2.13,0,3.18-.14,5.41-3.12,9.14-8.37,10.48a21.39,21.39,0,0,1-12.32-.66c-1.82-.62-3.58-1.41-5.41-2a2.49,2.49,0,0,0-3.4,1.87,9.07,9.07,0,0,0-.27,2.8,1.13,1.13,0,0,0,.8,1.17,42.22,42.22,0,0,0,10.79,3.11,29,29,0,0,0,13.44-.93c7.47-2.48,11.72-8.35,11.74-16.23s0-16,0-24q0-6.31,0-12.61C384.09-301.27,384.13-301.58,383.64-301.65Zm-6.54,13.83c0,2.05,0,4.11,0,6.16v6.3a1.86,1.86,0,0,1-.18.9c-3.84,7.66-14.43,9.94-21,4.5a13.25,13.25,0,0,1-4.57-8.31A17.06,17.06,0,0,1,353-289.71a12.25,12.25,0,0,1,11.07-6.58,13.47,13.47,0,0,1,12.71,7.17A2.46,2.46,0,0,1,377.1-287.82Z" transform="translate(-100.32 324.27)"/><path class="cls-13" d="M337.25-287.31a17.9,17.9,0,0,0-17.09-15h-2.62a19.57,19.57,0,0,0-15.79,9.49c-3,4.79-3.68,10-2.91,15.59a19.77,19.77,0,0,0,17.45,17.24c6.45.79,12.55-.54,18.48-3,.27-.12.43-.24.44-.57a8.42,8.42,0,0,0-.31-3,2.68,2.68,0,0,0-3.41-1.89c-.81.2-1.62.47-2.42.73a23.89,23.89,0,0,1-13.23,1.06c-6.63-1.53-9.63-6.75-10.06-11.87h31.07c.33,0,.64.07.69-.47A29.68,29.68,0,0,0,337.25-287.31ZM320-296.36c5.74.46,9.86,4.63,10.73,10.63.24,1.76.21,1.76-1.57,1.76H305.79C306.58-291.49,312.45-297,320-296.36Z" transform="translate(-100.32 324.27)"/><path class="cls-13" d="M427.89-286.82a25.15,25.15,0,0,0-.52-5.33,11.54,11.54,0,0,0-8.55-9.23,23.51,23.51,0,0,0-5.77-.89h-3.21a47.8,47.8,0,0,0-12.54,2.33c-.68.22-1.62.1-1.95.94a4.86,4.86,0,0,0-.11,2.37,2.66,2.66,0,0,0,3.44,2.52c1.35-.26,2.67-.64,4-.95a32.6,32.6,0,0,1,11.68-1c3.62.49,5.55,2.27,6.24,5.81a25.07,25.07,0,0,1,.28,4.33c0,.5-.09.65-.62.61a64.06,64.06,0,0,0-12.15.27,26.64,26.64,0,0,0-9.78,2.89,11.17,11.17,0,0,0-5.14,5.39,11.9,11.9,0,0,0,7.39,16c7.44,2.45,14.07.71,19.65-4.84.22-.21.37-.5.75-.64,0,1.14,0,2.24,0,3.34a2.29,2.29,0,0,0,1.92,2.51,11,11,0,0,0,4.17,0c.64-.06.82-.28.82-.93Q427.87-274,427.89-286.82Zm-7,14a1.17,1.17,0,0,1-.28.78,16.07,16.07,0,0,1-13.36,6.43,8.35,8.35,0,0,1-6-2.31,6.24,6.24,0,0,1,.79-9.64,15.24,15.24,0,0,1,6.59-2.35,43.21,43.21,0,0,1,7.85-.45c1.22,0,2.57.07,3.93.14.39,0,.53.1.52.52C420.87-277.43,420.87-275.13,420.88-272.84Z" transform="translate(-100.32 324.27)"/><path class="cls-13" d="M450.7-302.27h3.21A47.2,47.2,0,0,1,466.53-300a.91.91,0,0,1,.74.89,8.39,8.39,0,0,1,0,2.45,2.55,2.55,0,0,1-2.93,2.25,32.2,32.2,0,0,1-4.11-.84,30.49,30.49,0,0,0-11.34-.65,8.88,8.88,0,0,0-3.31,1.18,4.21,4.21,0,0,0-.2,7.11,17.89,17.89,0,0,0,5.65,2.3c3.28,1,6.62,1.67,9.83,2.89a19.94,19.94,0,0,1,4,2.09c6,4,5.36,12.13,1.49,16a15.31,15.31,0,0,1-8.23,4.07,38.65,38.65,0,0,1-14.38-.36,47.57,47.57,0,0,1-6.64-1.71.82.82,0,0,1-.66-.8,7.44,7.44,0,0,1,.26-3.08,2.5,2.5,0,0,1,2.93-1.78c2.14.32,4.2,1,6.33,1.43a28.43,28.43,0,0,0,11.14.2,8,8,0,0,0,3.22-1.4,4.72,4.72,0,0,0-.05-7.63,18.3,18.3,0,0,0-5.91-2.42c-3.33-1-6.74-1.63-10-2.89a14.08,14.08,0,0,1-5.57-3.65,10.16,10.16,0,0,1,1.12-14.22,15.25,15.25,0,0,1,7.84-3.41C448.73-302.11,449.72-302.17,450.7-302.27Z" transform="translate(-100.32 324.27)"/><path class="cls-13" d="M275.05-267.42c1.06-2.57,2.07-5,3.07-7.45q4.88-11.92,9.73-23.85c1.15-2.8,2.25-3.46,5.3-3.08A11.67,11.67,0,0,1,296-301c.44.18.48.36.29.78Q292.65-292,289-283.74l-9,20.61c-.6,1.37-1.35,2.59-3,2.86a15.55,15.55,0,0,1-5.88-.41c-.36-.08-.38-.41-.49-.66q-4.54-10.37-9.07-20.75c-2.62-6-5.23-12-7.88-18-.27-.61-.17-.85.45-1.07a12,12,0,0,1,4.32-.74,3.48,3.48,0,0,1,3.47,2.43c.79,2,1.63,4,2.45,6q5.21,12.72,10.42,25.43C274.86-267.85,274.93-267.69,275.05-267.42Z" transform="translate(-100.32 324.27)"/></svg>