<svg xmlns="http://www.w3.org/2000/svg" width="312" height="24" viewBox="0 0 312 24">
  <g id="Group_6003" data-name="Group 6003" transform="translate(-326.551 114.269)">
    <g id="Group_5896" data-name="Group 5896" transform="translate(535.694 -114.254)">
      <path id="Rectangle_17-4" data-name="Rectangle 17-4" d="M460.568-114.26h78.967a12.008,12.008,0,0,1,12.017,12h0a12.008,12.008,0,0,1-12.017,12H460.568a12.008,12.008,0,0,1-12.017-12h0A12.008,12.008,0,0,1,460.568-114.26Z" transform="translate(-448.694 114.245)" fill="#ff004e"/>
      <path id="Path_325" data-name="Path 325" d="M468.3-99.246l-1.127-2.649a5.294,5.294,0,0,1-3.881,1.533,4.181,4.181,0,0,1-4.318-4.457,4.155,4.155,0,0,1,4.318-4.478A5.545,5.545,0,0,1,467-107.781l1.051-2.818a7.086,7.086,0,0,0-4.951-1.638,7.173,7.173,0,0,0-7.551,7.483c0,4.689,3.316,7.485,7.551,7.485A6.853,6.853,0,0,0,468.3-99.246Zm15.228,1.724L478.1-112.049H474.6l-5.423,14.527h3.505l1.031-2.923h5.132l1.03,2.923Zm-5.466-5.572h-3.588l1.795-5.214Zm16.626,1.156a4.092,4.092,0,0,0-3.129-3.974c-.459-.189-1.523-.568-2.148-.82s-1.46-.589-1.46-1.472.793-1.3,1.877-1.3a4.95,4.95,0,0,1,3.213,1.472l1.439-2.376a7.067,7.067,0,0,0-4.568-1.787,5.877,5.877,0,0,0-3.8,1.156,4.092,4.092,0,0,0-1.5,3.175,3.578,3.578,0,0,0,1.134,2.8,5.59,5.59,0,0,0,1.717,1.049c.479.21,1.564.589,2.19.82s1.69.61,1.69,1.6a1.613,1.613,0,0,1-1.705,1.51,1.733,1.733,0,0,1-.215-.011,5.886,5.886,0,0,1-3.754-1.829L484-99.451a7.784,7.784,0,0,0,5.1,2.181c2.894.165,5.393-1.749,5.58-4.274A3.771,3.771,0,0,0,494.685-101.938Zm5.8,4.416v-14.506h-3.38v14.506Zm16.272,0v-14.506h-3.3v6.581c0,1.535.062,3.175.062,3.175l-6.183-9.756h-3.607v14.506h3.3v-6.56c0-1.535-.062-3.28-.062-3.28l6.32,9.84Zm17.794-7.233c0-4.689-3.359-7.506-7.635-7.506s-7.636,2.817-7.636,7.506,3.359,7.485,7.636,7.485S534.551-100.066,534.551-104.754Zm-3.421-.084c0,2.775-1.815,4.541-4.214,4.541s-4.215-1.766-4.215-4.541a4.17,4.17,0,0,1,4.215-4.521A4.182,4.182,0,0,1,531.13-104.838Z" transform="translate(-443.694 116.745)" fill="#fff"/>
    </g>
    <g id="Group_5882-4" data-name="Group 5882-4" transform="translate(418.551 -114.268)">
      <path id="Path_8-4" data-name="Path 8-4" d="M401.071-105.938a7.861,7.861,0,0,0-7.323-8.3,7.268,7.268,0,0,0-1.126,0h-12.07v23.962h6.991v-7.569h2.529l3.166,7.569h7.886L396.9-98.75A7.742,7.742,0,0,0,401.071-105.938Zm-13.519,2.03v-3.973h4.209c1.2,0,2.253.589,2.253,1.884a2.2,2.2,0,0,1-.657,1.511,2.014,2.014,0,0,1-1.49.579H387.54Z" transform="translate(-380.551 114.275)" fill="#ff004e"/>
      <rect id="Rectangle_6-4" data-name="Rectangle 6-4" width="6" height="24" transform="translate(24.429)" fill="#ff004e"/>
      <path id="Path_9-4" data-name="Path 9-4" d="M412.963-98.32h4.4v.807a6.654,6.654,0,0,1-3.679,1.067A5.777,5.777,0,0,1,409.626-98,5.462,5.462,0,0,1,407.9-101.9h0v-.343a5.6,5.6,0,0,1,5.373-5.736h.362a5.008,5.008,0,0,1,4.38,2.9l6.045-3.015a11.145,11.145,0,0,0-10.407-6.128,12.1,12.1,0,0,0-13.089,10.937h0a9.934,9.934,0,0,0,0,1.011,12.093,12.093,0,0,0,12.171,11.992h.951a14.252,14.252,0,0,0,10.857-4.639v-9.441H412.986Z" transform="translate(-366.267 114.268)" fill="#ff004e"/>
      <path id="Path_10-4" data-name="Path 10-4" d="M431.848-105.777H423.54v-8.483h-6.989v23.984h6.989V-99.45h8.307v9.174h6.989V-114.26h-6.989Z" transform="translate(-354.837 114.274)" fill="#ff004e"/>
      <path id="Path_11-4" data-name="Path 11-4" d="M431.549-114.26v6.327h6.6v17.657h7.416v-17.657h6.554v-6.327Z" transform="translate(-344.124 114.274)" fill="#ff004e"/>
    </g>
    <g id="Group_5894-4" data-name="Group 5894-4" transform="translate(326.551 -114.261)">
      <path id="Path_4-4" data-name="Path 4-4" d="M338.872-114.24H326.551v6.3h11.443a1.874,1.874,0,0,1,2.11,1.6,1.874,1.874,0,0,1,.015.339c0,1.323-.936,1.852-2.126,1.852H326.551V-90.28h6.974v-7.563h5.347a7.8,7.8,0,0,0,8.227-7.342l0-.045a6.14,6.14,0,0,0,0-.941,7.845,7.845,0,0,0-7.581-8.093h0Z" transform="translate(-326.551 114.264)" fill="#fff"/>
      <path id="Path_5-4" data-name="Path 5-4" d="M347.391-114.26h-6.84v23.984H355.98v-6.339h-8.589Z" transform="translate(-316.551 114.267)" fill="#fff"/>
      <path id="Path_7-4" data-name="Path 7-4" d="M377.406-106.165l-4.557-8.095h-8.3L373.7-99.8v9.527h7.443V-99.8l9.118-14.457h-8.347Z" transform="translate(-299.407 114.267)" fill="#fff"/>
      <path id="Path_12-4" data-name="Path 12-4" d="M369.943-114.26H360.59l-9.038,23.984h8.4l5.285-16.861,3.122,9.936H365.2l-2.037,6.924h15.818Z" transform="translate(-308.693 114.267)" fill="#fff"/>
    </g>
  </g>
</svg>
