<svg width="95" height="15" viewBox="0 0 95 15" fill="none" xmlns="http://www.w3.org/2000/svg">
<g clip-path="url(#clip0_6_22)">
<path fill-rule="evenodd" clip-rule="evenodd" d="M7.5001 0L5.1565 5.15668L0 5.6252L3.89155 9.55047L2.81288 15L7.48384 12.1528L12.1511 15L11.1037 9.54667L15 5.6252L9.84392 5.15668L7.5001 0Z" fill="#F7B13E"/>
</g>
<g clip-path="url(#clip1_6_22)">
<path fill-rule="evenodd" clip-rule="evenodd" d="M27.5001 0L25.1565 5.15668L20 5.6252L23.8916 9.55047L22.8129 15L27.4838 12.1528L32.1511 15L31.1037 9.54667L35 5.6252L29.8439 5.15668L27.5001 0Z" fill="#F7B13E"/>
</g>
<g clip-path="url(#clip2_6_22)">
<path fill-rule="evenodd" clip-rule="evenodd" d="M47.5001 0L45.1565 5.15668L40 5.6252L43.8916 9.55047L42.8129 15L47.4838 12.1528L52.1511 15L51.1037 9.54667L55 5.6252L49.8439 5.15668L47.5001 0Z" fill="#F7B13E"/>
</g>
<g clip-path="url(#clip3_6_22)">
<path fill-rule="evenodd" clip-rule="evenodd" d="M67.5001 0L65.1565 5.15668L60 5.6252L63.8916 9.55047L62.8129 15L67.4838 12.1528L72.1511 15L71.1037 9.54667L75 5.6252L69.8439 5.15668L67.5001 0Z" fill="#F7B13E"/>
</g>
<g clip-path="url(#clip4_6_22)">
<path fill-rule="evenodd" clip-rule="evenodd" d="M87.5001 0L85.1565 5.15668L80 5.6252L83.8916 9.55047L82.8129 15L87.4838 12.1528L92.1511 15L91.1037 9.54667L95 5.6252L89.8439 5.15668L87.5001 0Z" fill="#F7B13E"/>
</g>
<defs>
<clipPath id="clip0_6_22">
<rect width="15" height="15" fill="white"/>
</clipPath>
<clipPath id="clip1_6_22">
<rect width="15" height="15" fill="white" transform="translate(20)"/>
</clipPath>
<clipPath id="clip2_6_22">
<rect width="15" height="15" fill="white" transform="translate(40)"/>
</clipPath>
<clipPath id="clip3_6_22">
<rect width="15" height="15" fill="white" transform="translate(60)"/>
</clipPath>
<clipPath id="clip4_6_22">
<rect width="15" height="15" fill="white" transform="translate(80)"/>
</clipPath>
</defs>
</svg>
