<svg width="150" height="87" xmlns="http://www.w3.org/2000/svg"><g fill="#2AC92A" fill-rule="nonzero" opacity=".8"><path d="M7.251 43.023C2.417 48.009 0 53.943 0 60.949c0 7.005 2.417 12.98 7.251 17.926 4.875 4.945 10.676 7.417 17.524 7.417 6.848 0 12.69-2.472 17.524-7.417 4.552-4.657 6.969-10.179 7.25-16.608.041-.453.041-.906.041-1.318v-.66c-.161-6.717-2.538-12.486-7.251-17.266-4.875-4.987-10.595-7.418-17.484-7.418-6.848 0-12.73 2.431-17.604 7.418m17.685 7.788c2.74 0 5.116.99 7.05 2.967 1.933 1.978 2.9 4.368 2.9 7.17 0 2.803-.967 5.193-2.9 7.171-1.934 1.978-4.431 2.967-7.17 2.967-2.74 0-4.996-1.03-6.93-2.967-1.933-1.978-2.9-4.368-2.9-7.17 0-2.803.967-5.151 2.9-7.17 1.934-1.979 4.31-2.968 7.05-2.968M57.083 43.023c-4.874 4.986-7.251 10.92-7.251 17.926 0 7.005 2.417 12.98 7.25 17.926 4.835 4.945 10.757 7.417 17.605 7.417 6.849 0 12.61-2.472 17.443-7.417 4.552-4.657 6.93-10.179 7.252-16.608 0-.453.04-.906.04-1.318v-.66c-.161-6.717-2.538-12.486-7.251-17.266-4.834-4.987-10.635-7.418-17.444-7.418-6.848 0-12.81 2.431-17.644 7.418m17.644 7.788c2.78 0 5.157.99 7.09 2.967 1.934 1.978 2.901 4.368 2.901 7.17 0 2.803-.967 5.193-2.9 7.171-1.934 1.978-4.351 2.967-7.09 2.967-2.78 0-5.076-1.03-7.01-2.967-1.934-1.978-2.9-4.368-2.9-7.17 0-2.803.966-5.151 2.9-7.17 1.934-1.979 4.23-2.968 7.01-2.968M106.955 43.023c-4.874 4.986-7.251 10.92-7.251 17.926 0 7.047 2.417 12.98 7.251 17.926 4.874 4.945 10.756 7.417 17.564 7.417 6.848 0 12.65-2.472 17.483-7.417 4.553-4.657 6.93-10.179 7.252-16.608 0-.453.04-.906.04-1.318v-.66c-.161-6.717-2.538-12.486-7.251-17.308-4.834-4.986-10.635-7.417-17.484-7.417-6.888.04-12.77 2.472-17.604 7.459m17.564 7.87c2.78 0 5.197.907 7.13 2.885 1.934 1.978 2.9 4.368 2.9 7.13 0 2.802-.966 5.192-2.9 7.17-1.933 1.978-4.35 2.967-7.13 2.967-2.78 0-5.036-1.03-6.97-2.967-1.933-1.978-2.9-4.368-2.9-7.17 0-2.803.967-5.152 2.9-7.13 1.934-1.978 4.19-2.884 6.97-2.884"/><path d="M49.55 26.869c.04-.454.04-.907.04-1.32v-.659c-.161-6.717-2.538-12.445-7.251-17.266C37.464 2.637 31.664.206 24.815.206c-6.848 0-12.69 2.473-17.524 7.418C2.457 12.61.041 18.544.041 25.55c0 7.005 2.416 12.98 7.25 17.926 4.875 4.945 10.676 7.335 17.524 7.335 6.849 0 12.69-2.39 17.524-7.335 4.552-4.657 6.97-10.22 7.21-16.607M24.816 15.37c2.74 0 5.237.99 7.17 2.967 1.934 1.978 2.901 4.368 2.901 7.13 0 2.802-.967 5.233-2.9 7.17-1.934 1.978-4.431 2.926-7.17 2.926-2.74 0-4.996-.99-6.93-2.926-1.933-1.978-2.9-4.368-2.9-7.17 0-2.803.967-5.152 2.9-7.13 1.934-1.978 4.19-2.967 6.93-2.967M99.422 26.869c0-.454.04-.907.04-1.32v-.659c-.161-6.717-2.538-12.445-7.251-17.266C87.377 2.637 81.576.206 74.768.206c-6.849 0-12.77 2.473-17.604 7.418-4.875 4.986-7.252 10.92-7.252 17.926 0 7.005 2.417 12.98 7.252 17.926 4.834 4.945 10.755 7.335 17.604 7.335 6.848 0 12.609-2.39 17.443-7.335 4.512-4.657 6.889-10.22 7.21-16.607M74.728 15.37c2.78 0 5.157.99 7.09 2.967 1.934 1.978 2.901 4.368 2.901 7.13 0 2.802-.967 5.233-2.9 7.17-1.934 1.978-4.351 2.926-7.09 2.926-2.78 0-5.076-.99-7.01-2.926-1.934-1.978-2.9-4.368-2.9-7.17 0-2.803.966-5.152 2.9-7.13 1.934-1.978 4.23-2.967 7.01-2.967M149.294 25.509v-.66c-.161-6.717-2.538-12.445-7.251-17.266-4.834-4.987-10.635-7.418-17.484-7.418-6.848 0-12.73 2.472-17.564 7.418-4.874 4.986-7.25 10.92-7.25 17.926 0 7.005 2.416 12.98 7.25 17.926 4.875 4.945 10.756 7.417 17.564 7.417 6.849 0 12.65-2.472 17.484-7.417 4.552-4.616 6.929-10.179 7.25-16.608-.04-.453 0-.865 0-1.318m-17.644-7.17c1.934 1.977 2.9 4.367 2.9 7.128 0 2.803-.966 5.234-2.9 7.17-1.933 1.979-4.35 2.927-7.13 2.927-2.78 0-5.036-.99-6.97-2.926-1.933-1.978-2.9-4.368-2.9-7.17 0-2.803.967-5.152 2.9-7.13 1.934-1.978 4.23-2.967 6.97-2.967 2.78 0 5.197.99 7.13 2.967"/></g></svg>