<svg width="150" height="72" xmlns="http://www.w3.org/2000/svg" xmlns:xlink="http://www.w3.org/1999/xlink"><defs><path id="a" d="M0 0h69.391v71.783H0z"/><path id="c" d="M.592 0H5.99v.797H.592z"/><path id="e" d="M.395.165H2.17v.633H.395z"/></defs><g fill="none" fill-rule="evenodd"><mask id="b" fill="#fff"><use xlink:href="#a"/></mask><path d="M67.566 44.428c1.823-.373 2.11.597 1.601 2.018-2.2 6.13-5.277 11.677-10.285 15.992-5.743 4.95-12.162 8.256-19.806 8.814-.208.015-.394.347-.59.53h-2.368c-.592-.447-1.184-.447-1.776 0h-2.96c-5.625-.275-10.735-2.19-15.304-5.384C7.13 60.138 1.088 51.973.274 40.585.26 40.396.14 40.23 0 40.08v-1.795A7.86 7.86 0 0 0 0 33.5v-1.795C.665 24.114 3.619 17.49 8.7 11.949 14.755 5.35 21.833.537 31.174.306c.308-.008.57-.104.8-.306h1.776c1.742.789 3.638-.1 5.396.504C51.036 2.06 60.07 8.016 66.21 18.43c.15.255.282.523.422.784.447.837.786 1.966 0 2.463-1.069.677-1.431-.608-1.862-1.314-4.063-6.658-9.697-11.404-16.927-14.192-11.951-4.608-27.35.268-34.857 10.702-7.653 10.636-8.59 21.988-2.935 33.458 5.14 10.428 15.257 17.482 28.348 16.88 14.934-.687 24.318-8.82 29.167-22.784" fill="#D71E16" mask="url(#b)"/><g transform="translate(33.158)"><mask id="d" fill="#fff"><use xlink:href="#c"/></mask><path d="M5.988.504C4.181.432 2.293 1.234.592 0h5.33c.049.164.072.332.066.504" fill="#D71E16" mask="url(#d)"/></g><path d="M0 33.499c.947 1.595.965 3.19 0 4.785V33.5z" fill="#D71E16"/><g transform="translate(33.947 70.985)"><mask id="f" fill="#fff"><use xlink:href="#e"/></mask><path d="M.395.798c.592-.87 1.184-.817 1.776 0H.395z" fill="#D71E16" mask="url(#f)"/></g><path d="M140.226 35.9c-1.184 5.479-2.723 10.783-7.042 14.731-1.452 1.324-3.142 1.994-5.4 2.098-2.131.239-2.818-1.237-2.708-3.318.332-5.767 7.556-14.086 13.13-15.178 1.373-.272 2.43-.2 2.02 1.667m-62.25.957v-4.475c.032 0 .063-.008.103-.008.15-1.882.608-3.804.387-5.647-.419-3.445 1.547-3.892 4.137-4.06 3.244-.215 6.481-.646 9.71.048 1.982.431 3.853 1.109 4.634 3.223.758 2.025-.442 3.421-1.784 4.666-4.563 4.235-10.042 6.468-16.074 7.489-1.065.175-1.105-.495-1.113-1.236m25.871 7.026c1.445-3.964 3.703-7.21 7.974-8.446 1.91-.55 3.995.686 4.074 2.48-.584 1.66-1.73 3.111-3.356 4.108-2.265 1.388-4.815 2.153-7.31 3.007-1.01.343-1.918.319-1.382-1.149m45.34 11.159c-1.248-1.611-1.84-3.494-2.282-5.448-1.95-8.694-1.484-17.42-.197-26.137.663-4.482-.276-6.101-4.28-7.976-1.665-.781-2.115-.359-2.036 1.34.174 3.78.26 7.57.466 11.35.103 1.818-.474 2.496-2.408 2.8-8.432 1.307-14.29 6.133-17.803 13.965a32.329 32.329 0 0 1-2.258 4.188c-2.518 3.932-8.297 6.037-12.726 4.793-1.405-.399-2.447-1.308-2.463-2.624-.016-1.157 1.476-1.005 2.337-1.332 4.57-1.755 9.529-2.76 12.884-6.86 2.392-2.91 3.118-6.468 1.729-8.797-1.69-2.815-5.416-4.035-9.182-3.023-6.994 1.883-11.1 6.892-13.768 13.288-.576 1.38-1.018 2.122-2.597 2.162-5.306.135-10.074-1.803-14.93-3.67 7.793-1.842 15.024-4.745 21.395-9.586 2.677-2.034 5.069-4.515 4.508-8.152-.552-3.549-3.047-5.527-6.584-6.388-7.01-1.723-13.903-.71-20.818.494-3.553.622-6.75 2.122-9.869 3.869-1.255.701-2.21 1.906-1.658 3.094.537 1.173 1.91.295 2.882-.072 2.376-.893 4.65-2.081 7.579-2.344-2.763 3.74-3.592 7.84-3.821 12.02-.142 2.416-1.13 3.19-3.3 2.942-.569 1.396-2.574 2.943-.19 4.204 1.974 1.044 1.919 2.297 1.603 4.14-.64 3.668-1.626 7.305-1.54 11.181 3.735-.526 5.748-2.456 6.182-6.006.142-1.188.419-2.36.458-3.54.055-1.907.624-2.49 2.503-1.58 5.115 2.464 10.476 4.044 16.215 3.932 1.169-.024 1.793.423 2.14 1.531.995 3.159 3.426 4.42 6.45 4.874 5.124.765 10.003.27 14.368-2.824.735-.526 1.082-.757 1.895.072 4.232 4.315 11.826 4.084 16.01-.367 1.722-1.842 3.3-3.796 4.43-6.325 1.12 4.044 2.976 7.05 6.339 8.877.797.431 1.871 1.197 2.708.4.781-.743-.592-1.564-.371-2.465M37.99 54.428a7.767 7.767 0 0 0-.293.414c-.07.104-.134.208-.205.311l-.166.264c-.165.263-.331.534-.505.79-.079.135-.166.262-.253.39-.615.646-1.231 1.284-2.242.837-9.355 5.352-18.71.016-22.247-9.435-.166-.447-.608-.877-.095-1.316.537-.455 1.16-.343 1.563.183.656.862 1.2 1.81 1.808 2.712 3.41 5.105 9.64 6.971 14.345 4.3 4.555-2.577 5.171-9.07 1.287-12.667-3.719-3.437-8.424-3.477-12.98-4.17-1.041-.16-3.007 1.052-3.039-1.03-.031-1.898.395-4.036 3.032-4.418 2.645-.391 5.155-1.293 7.54-2.52 1.35-.695 2.494-1.62 3.086-3.08 1.05-2.616 1.61-5.407-.663-7.505-2.345-2.17-5.29-1.802-8.068-.654-1.769.734-3.087 2.114-4.342 3.533-.403.463-.924.91-1.508.471-.671-.495-.08-1.077.134-1.587 2.076-4.953 7.855-8.694 13.192-8.566 4.31.103 6.64 2.983 8.668 6.285.608 1.068.893 2.13.94 3.182.032.487.008.965-.063 1.444-.158 1.212-.584 2.416-1.13 3.605-.994 2.17-2.62 3.916-4.507 5.838 3.742 1.747 6.687 3.845 8.597 7.362 3.024 5.583 1.256 10.345-1.887 15.027" fill="#D71E16"/><path d="M63.229 48.438c-6.892 8.741-16.492 10.87-26.842 11.158-1.5.04-2.195-.646-2.06-2.162.584-.303 1.176-.598 1.76-.9.324-.495.758-.846 1.24-1.117.11-.064.228-.12.339-.176a4.78 4.78 0 0 1 .292-.136c6.71-4.546 12.237-10.257 16.374-17.275 2.865-4.866 4.95-9.914 2.842-15.777-.98-2.727-2.921-3.9-5.55-4.115-2.677-.224-4.934.702-6.024 3.334-.94 2.273-2.282 3.39-4.76 2.576-1.082-1.117-4.05.088-3.553-2.96-.04-1.371 1.121-2.232 1.421-3.46 7.492-9.213 17.818-5.656 21.687.813 2.163 3.613 2.455 7.537 1.54 11.533-1.43 6.205-4.714 11.525-8.227 16.71-1.042 1.539-2.416 2.87-3.024 4.897 4.398-.016 7.848-1.954 11.037-4.562.734-.599 1.634-1.835 2.447-1.077 1.106 1.037-.331 1.922-.939 2.696" fill="#D71E16"/><path d="M37.958 55.105a.922.922 0 0 1-.095.2c-.229.454-.616.702-1.042.901-.237.12-.49.215-.734.327-.016-.949.521-1.571 1.208-2.105.134.135.268.27.402.414l.261.263zM40.84 23.848c-1.193.167-2.282-.24-3.269-.782a2.485 2.485 0 0 1-.655-.47c-.403-.4-.498-.894.063-1.444.087-.088.19-.175.308-.263.024.98.49 1.42 1.09 1.699.362.167.78.279 1.176.407.513.175.994.398 1.286.853" fill="#D71E16"/></g></svg>