<svg width="33" height="33" viewBox="0 0 33 33" fill="none" xmlns="http://www.w3.org/2000/svg">
<rect width="33" height="33" rx="12" fill="#17163C"/>
<path d="M25.2509 15.8789C24.893 15.8789 24.6026 16.1693 24.6026 16.5272C24.6026 20.4037 21.9042 23.6544 18.2895 24.5222V23.7141C18.2895 23.1384 17.592 22.8472 17.1832 23.256L15.4917 24.9466C15.2384 25.1999 15.2384 25.6104 15.4917 25.8637L17.1832 27.5543C17.5886 27.9597 18.2895 27.6762 18.2895 27.0962V25.8593C22.6268 24.97 25.8991 21.1237 25.8991 16.5272C25.8991 16.1693 25.6087 15.8789 25.2509 15.8789V15.8789Z" fill="#7A86FA"/>
<path d="M13.6273 24.278C10.3463 23.1284 8.14223 20.0143 8.14223 16.5275C8.14223 15.5405 8.32028 14.5819 8.65477 13.6813L9.43181 14.129C9.9288 14.4168 10.5312 13.9596 10.3826 13.3995L9.72568 10.95C9.63233 10.606 9.28487 10.402 8.9305 10.4919L6.48011 11.1479C5.92262 11.2975 5.82668 12.0486 6.32453 12.3355L7.51645 13.0235C7.07737 14.1264 6.84659 15.3088 6.84659 16.5275C6.84659 20.5631 9.39896 24.17 13.1994 25.5019C13.5426 25.6203 13.9082 25.4388 14.0257 25.1043C14.1433 24.7664 13.9652 24.3964 13.6273 24.278Z" fill="#7A86FA"/>
<path d="M25.9286 11.2499L24.5344 11.6233C22.8377 8.82028 19.7451 7 16.3725 7C14.2013 7 12.1667 7.71394 10.4873 9.0623C10.2081 9.28702 10.164 9.69499 10.3879 9.97417C10.6135 10.2542 11.0206 10.2974 11.2998 10.0736C12.7466 8.91104 14.5004 8.2965 16.3725 8.2965C19.1574 8.2965 21.7184 9.73475 23.2189 11.9751L22.4635 12.1773C21.9068 12.3269 21.8083 13.0763 22.307 13.3649L24.5033 14.6338C24.6528 14.7202 24.8283 14.7427 24.9951 14.6986C25.1602 14.6537 25.3019 14.5456 25.3884 14.3961L26.6581 12.1998C26.9442 11.7028 26.4904 11.1013 25.9286 11.2499Z" fill="#7A86FA"/>
<path fill-rule="evenodd" clip-rule="evenodd" d="M12.6118 12.6118C14.761 10.4626 18.2393 10.4629 20.3882 12.6118C22.5374 14.761 22.5371 18.2393 20.3882 20.3882C18.239 22.5374 14.7607 22.5371 12.6118 20.3882C10.4626 18.239 10.4629 14.7607 12.6118 12.6118ZM17.8693 18.7936C17.869 18.5464 17.6692 18.3425 17.4171 18.3425L16.1441 18.3441C16.2892 18.0555 16.3795 17.7307 16.4096 17.4105H17.4176C17.6671 17.4105 17.8693 17.2083 17.8693 16.9589C17.8693 16.7094 17.6671 16.5072 17.4176 16.5072H16.3302C16.2715 16.3001 16.1846 16.1029 16.07 15.9217C15.6671 15.2882 15.8109 15.0586 16.0083 14.8612C16.2801 14.5894 16.72 14.5894 16.9917 14.8612C17.1681 15.0376 17.4541 15.0376 17.6304 14.8612C17.8068 14.6848 17.8068 14.3988 17.6305 14.2224C17.0056 13.5976 15.9943 13.5977 15.3695 14.2224C14.5244 15.0676 15.0525 15.9698 15.2919 16.3788C15.3216 16.4295 15.3469 16.4727 15.3645 16.5072H15.1235C14.8741 16.5072 14.6718 16.7094 14.6718 16.9588C14.6718 17.2083 14.8741 17.4105 15.1235 17.4105H15.5003C15.4466 17.782 15.2411 18.2481 14.9373 18.3856C14.7434 18.4734 14.637 18.6846 14.6821 18.8926C14.7268 19.0992 14.9094 19.2487 15.1241 19.2487L17.4182 19.2458C17.6677 19.2455 17.8696 19.043 17.8693 18.7936Z" fill="#7A86FA"/>
</svg>
