<svg width="33" height="33" viewBox="0 0 33 33" fill="none" xmlns="http://www.w3.org/2000/svg">
<rect width="33" height="33" rx="12" fill="#17163C"/>
<path d="M15.2661 12.7238V11.543H8.18087C7.53021 11.543 7 12.0732 7 12.7238V15.0856H15.5153C15.3511 14.3641 15.2661 13.5871 15.2661 12.7238Z" fill="#7A86FA"/>
<path fill-rule="evenodd" clip-rule="evenodd" d="M22.0526 20.7549C23.8121 19.7441 25.0402 18.6884 25.8455 17.4473H25.8939V23.3516C25.8939 24.0035 25.3649 24.5325 24.7131 24.5325H8.18087C7.53021 24.5325 7 24.0035 7 23.3516V17.4473H16.4977C17.3043 18.6872 18.5324 19.7441 20.2919 20.7572C20.5588 20.9096 20.8634 20.9899 21.1705 20.9899C21.4775 20.9899 21.7821 20.9096 22.0526 20.7549ZM9.95219 20.9899H12.3139C12.6399 20.9899 12.9044 20.7253 12.9044 20.3994C12.9044 20.0735 12.6399 19.809 12.3139 19.809H9.95219C9.62627 19.809 9.36176 20.0735 9.36176 20.3994C9.36176 20.7253 9.62627 20.9899 9.95219 20.9899Z" fill="#7A86FA"/>
<path fill-rule="evenodd" clip-rule="evenodd" d="M21.4034 8.04783L25.5364 9.81913C25.7537 9.91124 25.8942 10.125 25.8942 10.3612V12.7229C25.8942 15.9762 24.6933 17.875 21.4648 19.7302C21.3739 19.7821 21.2723 19.8081 21.1708 19.8081C21.0692 19.8081 20.9676 19.7821 20.8767 19.7302C17.6482 17.8703 16.4473 15.9715 16.4473 12.7229V10.3612C16.4473 10.125 16.5878 9.91124 16.8039 9.81913L20.9369 8.04783C21.0869 7.98406 21.2534 7.98406 21.4034 8.04783ZM21.0421 15.4542L23.4038 12.5021C23.6057 12.247 23.5656 11.875 23.3105 11.6731C23.0566 11.4712 22.6847 11.5113 22.4804 11.7652L20.624 14.0868L19.8907 12.9874C19.7089 12.7146 19.3416 12.6438 19.0724 12.8232C18.8008 13.0039 18.7276 13.37 18.9082 13.6416L20.0891 15.4129C20.1942 15.57 20.3678 15.6668 20.5555 15.6751H20.5803C20.7587 15.6751 20.9287 15.5936 21.0421 15.4542Z" fill="#7A86FA"/>
</svg>
