<svg width="33" height="33" viewBox="0 0 33 33" fill="none" xmlns="http://www.w3.org/2000/svg">
<rect width="33" height="33" rx="12" fill="#17163C"/>
<path d="M14.3496 14.277V10H6.90234L14.3496 14.277Z" fill="#7A86FA"/>
<path d="M12.6642 14.7219L6 10.8945V14.7219H12.6642Z" fill="#7A86FA"/>
<path d="M17.3435 15.9485V10H15.5748V15.9485H6V17.7172H15.5748V23.6657H17.3435V17.7172H26.9183V15.9485H17.3435Z" fill="#7A86FA"/>
<path d="M20.2539 18.9434L26.9181 22.7707V18.9434H20.2539Z" fill="#7A86FA"/>
<path d="M18.5693 19.3887V23.6656H26.0166L18.5693 19.3887Z" fill="#7A86FA"/>
<path d="M18.5693 10V14.277L26.0166 10H18.5693Z" fill="#7A86FA"/>
<path d="M20.2539 14.7219H26.9181V10.8945L20.2539 14.7219Z" fill="#7A86FA"/>
<path d="M14.3496 19.3887L6.90234 23.6656H14.3496V19.3887Z" fill="#7A86FA"/>
<path d="M6 18.9434V22.7707L12.6642 18.9434H6Z" fill="#7A86FA"/>
</svg>
