<svg width="187" height="154" viewBox="0 0 187 154" fill="none" xmlns="http://www.w3.org/2000/svg">
<g clip-path="url(#clip0_302_33)">
<path d="M21.2154 83.6973C29.0695 94.5756 36.9236 105.454 44.777 116.34C42.0575 112.564 44.5845 106.041 52.3881 97.9263L28.8265 65.2834C21.0229 73.3977 18.496 79.9215 21.2154 83.6973Z" fill="url(#paint0_linear_302_33)"/>
<path d="M117.079 49.8494L140.641 82.4843L140.473 81.8454L116.919 49.211L117.079 49.8494Z" fill="#3386FF"/>
<path d="M152.599 98.0577C143.895 85.3396 107.77 36.5062 104.065 32.2036C119.822 34.1091 157.149 37.6553 167.059 38.427C168.229 38.9842 170.063 40.1313 170.063 40.1313C170.063 40.1313 158.844 76.1429 152.599 98.0577Z" fill="url(#paint1_linear_302_33)"/>
<path d="M28.8475 86.2441C36.8576 87.0187 49.1725 84.3695 63.5392 78.7691C79.8247 72.4212 98.1683 62.5289 116.61 50.1494C110.468 41.4675 105.834 34.7814 105.122 33.3536C124.223 37.263 161.321 38.5771 170.099 40.0699C167.927 47.119 158.373 76.0496 151.669 99.5889C149.326 96.1636 145.017 90.0807 139.941 82.9507C121.57 95.2555 103.311 105.098 87.0927 111.411C72.734 117.012 60.4111 119.661 52.401 118.886C48.3156 118.493 45.5729 117.274 44.1875 115.352C36.3335 104.474 28.4794 93.5956 20.626 82.7093C22.0194 84.6319 24.7541 85.8499 28.8475 86.2441Z" fill="url(#paint2_linear_302_33)"/>
<path d="M27.3087 65.7655C17.8939 74.1882 16.4468 85.0519 28.847 86.252C36.8571 87.0266 49.172 84.3774 63.5387 78.777C79.9578 72.3754 98.4716 62.3762 117.079 49.8493L116.919 49.211C77.5532 75.7 45.2567 86.1391 30.7055 84.7296C18.8753 83.5823 16.1509 78.9269 28.834 65.2919L27.3087 65.7655Z" fill="url(#paint3_linear_302_33)"/>
</g>
<defs>
<linearGradient id="paint0_linear_302_33" x1="36.1605" y1="91.2094" x2="29.8566" y2="68.2909" gradientUnits="userSpaceOnUse">
<stop stop-color="#3386FF"/>
<stop offset="1" stop-color="#85B6FF"/>
</linearGradient>
<linearGradient id="paint1_linear_302_33" x1="137.171" y1="34.8081" x2="132.321" y2="96.4624" gradientUnits="userSpaceOnUse">
<stop stop-color="#3386FF"/>
<stop offset="1" stop-color="#12417D" stop-opacity="0"/>
</linearGradient>
<linearGradient id="paint2_linear_302_33" x1="168.747" y1="48.0525" x2="40.286" y2="107.769" gradientUnits="userSpaceOnUse">
<stop stop-color="#7BB1FF"/>
<stop offset="1" stop-color="#3386FF"/>
</linearGradient>
<linearGradient id="paint3_linear_302_33" x1="69.8063" y1="45.5045" x2="66.3681" y2="89.208" gradientUnits="userSpaceOnUse">
<stop stop-color="#3386FF"/>
<stop offset="1" stop-color="#12417D" stop-opacity="0"/>
</linearGradient>
<clipPath id="clip0_302_33">
<rect width="147.023" height="90.4759" fill="white" transform="matrix(-0.99692 -0.0784294 -0.0784294 0.99692 170.308 37.415)"/>
</clipPath>
</defs>
</svg>
