<svg width="263" height="98" viewBox="0 0 263 98" fill="none" xmlns="http://www.w3.org/2000/svg">
<path d="M17.8759 34.9005V55.3144H53.6277V69.6592H17.8759V97.7973H0V20.5557H58.3726V34.9005H17.8759Z" fill="#00458A"/>
<path d="M110.309 81.2455H74.4468L67.6054 97.7973H49.2881L83.7158 20.5557H101.371L135.909 97.7973H117.15L110.309 81.2455ZM104.681 67.673L92.433 38.1005L80.1847 67.673H104.681Z" fill="#00458A"/>
<path d="M196.226 57.6316C200.64 59.0293 204.098 61.3834 206.599 64.6937C209.1 67.9305 210.351 71.9397 210.351 76.7213C210.351 83.4892 207.702 88.7122 202.406 92.3904C197.183 95.995 189.532 97.7973 179.454 97.7973H139.509V20.5557H177.247C186.663 20.5557 193.872 22.358 198.875 25.9626C203.951 29.5672 206.489 34.4592 206.489 40.6385C206.489 44.3902 205.569 47.7374 203.73 50.6799C201.964 53.6224 199.463 55.9397 196.226 57.6316ZM157.275 34.0178V52.2247H175.04C179.454 52.2247 182.801 51.4523 185.082 49.9075C187.362 48.3626 188.502 46.0822 188.502 43.0661C188.502 40.05 187.362 37.8063 185.082 36.335C182.801 34.7902 179.454 34.0178 175.04 34.0178H157.275ZM178.13 84.3352C182.838 84.3352 186.369 83.5627 188.723 82.0179C191.151 80.4731 192.364 78.0823 192.364 74.8455C192.364 68.4455 187.619 65.2454 178.13 65.2454H157.275V84.3352H178.13Z" fill="#00458A"/>
<path d="M262.435 8.32317C262.057 10.467 259.472 15.9528 254.68 24.7804C239.547 52.0198 231.539 75.2239 230.656 94.3924L218.55 96.284C217.793 94.2663 217.415 90.9244 217.415 86.2584C217.415 75.0347 224.729 54.542 239.357 24.7804C234.565 26.672 230.656 27.6178 227.629 27.6178C224.603 27.6178 221.765 27.1134 219.117 26.1045L223.279 16.4572C224.792 16.8355 226.305 17.0247 227.819 17.0247C231.854 17.0247 235.953 15.7636 240.114 13.2414C244.276 10.7192 247.491 7.8818 249.761 4.72908C252.031 1.57636 253.986 0 255.626 0C257.265 0 258.841 0.56749 260.355 1.70247C261.994 2.83745 262.814 4.09853 262.814 5.48573C262.814 6.87292 262.688 7.81874 262.435 8.32317Z" fill="#EE3023"/>
</svg>
